<?xml version="1.0" encoding="UTF-8" standalone="no"?>
<!-- Created with Inkscape (http://www.inkscape.org/) -->

<svg
   xmlns:dc="http://purl.org/dc/elements/1.1/"
   xmlns:cc="http://creativecommons.org/ns#"
   xmlns:rdf="http://www.w3.org/1999/02/22-rdf-syntax-ns#"
   xmlns:svg="http://www.w3.org/2000/svg"
   xmlns="http://www.w3.org/2000/svg"
   xmlns:sodipodi="http://sodipodi.sourceforge.net/DTD/sodipodi-0.dtd"
   xmlns:inkscape="http://www.inkscape.org/namespaces/inkscape"
   version="1.1"
   id="svg10"
   xml:space="preserve"
   width="8.5in"
   height="11in"
   viewBox="0 0 816 1056"
   sodipodi:docname="MV2634_102018_Report.svg"
   inkscape:version="0.92.5 (2060ec1f9f, 2020-04-08)"
   inkscape:export-filename="/home/jlonge/code/roadsafety/web_app/public/assets/MV2634_102018_report.png"
   inkscape:export-xdpi="300"
   inkscape:export-ydpi="300"><metadata
     id="metadata16"><rdf:RDF><cc:Work
         rdf:about=""><dc:format>image/svg+xml</dc:format><dc:type
           rdf:resource="http://purl.org/dc/dcmitype/StillImage" /><dc:title /></cc:Work></rdf:RDF></metadata><defs
     id="defs14"><clipPath
       clipPathUnits="userSpaceOnUse"
       id="clipPath28"><path
         d="M 0,702 H 336 V 0 H 0 Z"
         id="path26"
         inkscape:connector-curvature="0" /></clipPath></defs><sodipodi:namedview
     pagecolor="#ffffff"
     bordercolor="#666666"
     borderopacity="1"
     objecttolerance="10"
     gridtolerance="10"
     guidetolerance="10"
     inkscape:pageopacity="0"
     inkscape:pageshadow="2"
     inkscape:window-width="902"
     inkscape:window-height="832"
     id="namedview12"
     showgrid="false"
     inkscape:zoom="1.7777777"
     inkscape:cx="137.02956"
     inkscape:cy="405.00001"
     inkscape:window-x="1000"
     inkscape:window-y="43"
     inkscape:window-maximized="0"
     inkscape:current-layer="g18"
     units="in" /><g
     id="g18"
     inkscape:groupmode="layer"
     inkscape:label="MV2634_102018_Report"
     transform="matrix(1.3333333,0,0,-1.3333333,0,1056)"><g
   id="g20"><g
     id="g22"><g
       id="g24"
       clip-path="url(#clipPath28)"><g
         id="g30"
         transform="translate(-30.65,661.75)"><path
           d="M 0,0 H 36"
           style="fill:none;stroke:#000000;stroke-width:0.5;stroke-linecap:butt;stroke-linejoin:miter;stroke-miterlimit:4;stroke-dasharray:9.6, 3.6;stroke-dashoffset:0;stroke-opacity:1"
           id="path32"
           inkscape:connector-curvature="0" /></g><g
         id="g34"
         transform="translate(329.5,661.75)"><path
           d="M 0,0 H 36"
           style="fill:none;stroke:#000000;stroke-width:0.5;stroke-linecap:butt;stroke-linejoin:miter;stroke-miterlimit:4;stroke-dasharray:9.6, 3.6;stroke-dashoffset:0;stroke-opacity:1"
           id="path36"
           inkscape:connector-curvature="0" /></g><g
         id="g38"
         transform="translate(-30.8,40.75)"><path
           d="M 0,0 H 36"
           style="fill:none;stroke:#000000;stroke-width:0.5;stroke-linecap:butt;stroke-linejoin:miter;stroke-miterlimit:4;stroke-dasharray:9.6, 3.6;stroke-dashoffset:0;stroke-opacity:1"
           id="path40"
           inkscape:connector-curvature="0" /></g><g
         id="g42"
         transform="translate(329.35,40.75)"><path
           d="M 0,0 H 36"
           style="fill:none;stroke:#000000;stroke-width:0.5;stroke-linecap:butt;stroke-linejoin:miter;stroke-miterlimit:4;stroke-dasharray:9.6, 3.6;stroke-dashoffset:0;stroke-opacity:1"
           id="path44"
           inkscape:connector-curvature="0" /></g></g></g></g><g
   id="g62"
   transform="translate(204.87,342.6822)"><path
     d="M 0,0 H 117.33"
     style="fill:none;stroke:#666a6f;stroke-width:0.42500001;stroke-linecap:butt;stroke-linejoin:miter;stroke-miterlimit:10;stroke-dasharray:none;stroke-opacity:1"
     id="path64"
     inkscape:connector-curvature="0" /></g><g
   id="g66"
   transform="translate(162.4015,328.1822)"><path
     d="M 0,0 H 159.798"
     style="fill:none;stroke:#666a6f;stroke-width:0.42500001;stroke-linecap:butt;stroke-linejoin:miter;stroke-miterlimit:10;stroke-dasharray:none;stroke-opacity:1"
     id="path68"
     inkscape:connector-curvature="0" /></g><g
   id="g70"
   transform="translate(75.6912,299.1822)"><path
     d="M 0,0 H 52.063"
     style="fill:none;stroke:#666a6f;stroke-width:0.42500001;stroke-linecap:butt;stroke-linejoin:miter;stroke-miterlimit:10;stroke-dasharray:none;stroke-opacity:1"
     id="path72"
     inkscape:connector-curvature="0" /></g><g
   id="g74"
   transform="translate(28.5,284.1822)"><path
     d="M 0,0 H 61.046"
     style="fill:none;stroke:#666a6f;stroke-width:0.42500001;stroke-linecap:butt;stroke-linejoin:miter;stroke-miterlimit:10;stroke-dasharray:none;stroke-opacity:1"
     id="path76"
     inkscape:connector-curvature="0" /></g><g
   id="g78"
   transform="translate(213.7401,269.6822)"><path
     d="M 0,0 H 108.46"
     style="fill:none;stroke:#666a6f;stroke-width:0.42500001;stroke-linecap:butt;stroke-linejoin:miter;stroke-miterlimit:10;stroke-dasharray:none;stroke-opacity:1"
     id="path80"
     inkscape:connector-curvature="0" /></g><g
   id="g82"
   transform="translate(28.5,255.1822)"><path
     d="M 0,0 H 50.37"
     style="fill:none;stroke:#666a6f;stroke-width:0.42500001;stroke-linecap:butt;stroke-linejoin:miter;stroke-miterlimit:10;stroke-dasharray:none;stroke-opacity:1"
     id="path84"
     inkscape:connector-curvature="0" /></g><g
   id="g86"
   transform="translate(224.87,167.1822)"><path
     d="M 0,0 H 97.33"
     style="fill:none;stroke:#666a6f;stroke-width:0.42500001;stroke-linecap:butt;stroke-linejoin:miter;stroke-miterlimit:10;stroke-dasharray:none;stroke-opacity:1"
     id="path88"
     inkscape:connector-curvature="0" /></g><g
   id="g90"
   transform="translate(178.6194,152.6822)"><path
     d="M 0,0 H 143.581"
     style="fill:none;stroke:#666a6f;stroke-width:0.42500001;stroke-linecap:butt;stroke-linejoin:miter;stroke-miterlimit:10;stroke-dasharray:none;stroke-opacity:1"
     id="path92"
     inkscape:connector-curvature="0" /></g><g
   id="g94"
   transform="translate(75.6912,109.1822)"><path
     d="M 0,0 H 52.063"
     style="fill:none;stroke:#666a6f;stroke-width:0.42500001;stroke-linecap:butt;stroke-linejoin:miter;stroke-miterlimit:10;stroke-dasharray:none;stroke-opacity:1"
     id="path96"
     inkscape:connector-curvature="0" /></g><g
   id="g98"
   transform="translate(28.5,94.6822)"><path
     d="M 0,0 H 61.046"
     style="fill:none;stroke:#666a6f;stroke-width:0.42500001;stroke-linecap:butt;stroke-linejoin:miter;stroke-miterlimit:10;stroke-dasharray:none;stroke-opacity:1"
     id="path100"
     inkscape:connector-curvature="0" /></g><g
   id="g102"
   transform="translate(213.7401,80.1822)"><path
     d="M 0,0 H 108.46"
     style="fill:none;stroke:#666a6f;stroke-width:0.42500001;stroke-linecap:butt;stroke-linejoin:miter;stroke-miterlimit:10;stroke-dasharray:none;stroke-opacity:1"
     id="path104"
     inkscape:connector-curvature="0" /></g><g
   id="g106"
   transform="translate(28.5,65.6822)"><path
     d="M 0,0 H 50.37"
     style="fill:none;stroke:#666a6f;stroke-width:0.42500001;stroke-linecap:butt;stroke-linejoin:miter;stroke-miterlimit:10;stroke-dasharray:none;stroke-opacity:1"
     id="path108"
     inkscape:connector-curvature="0" /></g><text
   transform="matrix(1,0,0,-1,196.109,577.9321)"
   style="font-variant:normal;font-weight:normal;font-stretch:normal;font-size:10px;font-family:'HelveticaNeueLT Std';-inkscape-font-specification:HelveticaNeueLTStd-Roman;writing-mode:lr-tb;fill:#666a6f;fill-opacity:1;fill-rule:nonzero;stroke:none"
   id="text116"><tspan
     x="0 2.5899999 9.8100004 15.55 21.110001 24.26 26.48 32.040001 37.599998 42.970001 48.900002"
     y="0"
     sodipodi:role="line"
     id="tspan114">(Continued)</tspan></text>




<text
   transform="matrix(1,0,0,-1,13.499,561.4321)"
   style="font-variant:normal;font-weight:bold;font-stretch:normal;font-size:10px;font-family:'HelveticaNeueLT Std';-inkscape-font-specification:HelveticaNeueLTStd-Bd;writing-mode:lr-tb;fill:#666a6f;fill-opacity:1;fill-rule:nonzero;stroke:none"
   id="text120"><tspan
     x="0 5.5599999 8.5200005 13.52 20.93 24.82 27.4 32.599998 38.34"
     y="0"
     sodipodi:role="line"
     id="tspan118">1) Driver</tspan></text>




<text
   transform="matrix(1,0,0,-1,27.5,551.2321)"
   style="font-variant:normal;font-weight:normal;font-stretch:normal;font-size:8.5px;font-family:'HelveticaNeueLT Std';-inkscape-font-specification:HelveticaNeueLTStd-Roman;letter-spacing:-0.1125px;writing-mode:lr-tb;fill:#666a6f;fill-opacity:1;fill-rule:nonzero;stroke:none"
   id="text128"><tspan
     sodipodi:role="line"
     id="tspan126"
     x="0"
     y="0"
     style="line-height:0;letter-spacing:-0.35250002px;word-spacing:-0.075px"
     dx="0">The driver identifed on the reverse was operating a motor vehicle or had </tspan><tspan
     sodipodi:role="line"
     x="0"
     y="10.625"
     id="tspan183"
     style="line-height:0;letter-spacing:-0.35250002px;word-spacing:-0.075px">care or control of a motor vehicle for the purposes of section 215(1) of the </tspan><tspan
     sodipodi:role="line"
     x="0"
     y="21.25"
     id="tspan185"
     style="line-height:0;letter-spacing:-0.35250002px;word-spacing:-0.075px">Motor Vehicle Act based upon (provide evidence):</tspan></text>




<path
   d="m 28.725,516.557 h 11.121 v 11.121 H 28.725 Z"
   style="fill:none;stroke:#666a6f;stroke-width:0.44999999;stroke-linecap:butt;stroke-linejoin:miter;stroke-miterlimit:4;stroke-dasharray:none;stroke-opacity:1"
   id="path130"
   inkscape:connector-curvature="0" /><text
   transform="matrix(1,0,0,-1,44.3214,517.3352)"
   style="font-variant:normal;font-weight:normal;font-stretch:normal;font-size:8.50000021px;font-family:sans-serif;-inkscape-font-specification:'sans-serif, Normal';writing-mode:lr;fill:#666a6f;fill-opacity:1;fill-rule:nonzero;stroke:none;font-style:normal;text-anchor:start;text-align:start;font-variant-ligatures:normal;font-variant-caps:normal;font-variant-numeric:normal;font-feature-settings:normal;"
   id="text136"><tspan
     sodipodi:role="line"
     id="tspan193">Witnessed by officer</tspan><tspan
     sodipodi:role="line"
     id="tspan195"> </tspan></text>




<path
   d="m 145.725,516.557 h 11.121 v 11.121 h -11.121 z"
   style="fill:none;stroke:#666a6f;stroke-width:0.44999999;stroke-linecap:butt;stroke-linejoin:miter;stroke-miterlimit:4;stroke-dasharray:none;stroke-opacity:1"
   id="path138"
   inkscape:connector-curvature="0" /><text
   transform="matrix(1,0,0,-1,161.3214,517.3352)"
   style="font-variant:normal;font-weight:normal;font-stretch:normal;font-size:8.50000021px;font-family:sans-serif;-inkscape-font-specification:'sans-serif, Normal';writing-mode:lr;fill:#666a6f;fill-opacity:1;fill-rule:nonzero;stroke:none;font-style:normal;text-anchor:start;text-align:start;font-variant-ligatures:normal;font-variant-caps:normal;font-variant-numeric:normal;font-feature-settings:normal;"
   id="text142"><tspan
     x="0 5.5079999 10.5485 17.799 19.686001 23.936001 28.186001 30.073 34.952 39.678001 42.041 47.081501 51.331501 53.6945 58.735001 61.565498 63.452499 67.702499 72.266998"
     y="0"
     sodipodi:role="line"
     id="tspan140">Admission by driver</tspan></text>




<path
   d="m 28.725,502.057 h 11.121 v 11.121 H 28.725 Z"
   style="fill:none;stroke:#666a6f;stroke-width:0.44999999;stroke-linecap:butt;stroke-linejoin:miter;stroke-miterlimit:4;stroke-dasharray:none;stroke-opacity:1"
   id="path144"
   inkscape:connector-curvature="0" /><text
   transform="matrix(1,0,0,-1,44.3214,502.8351)"
   style="font-variant:normal;font-weight:normal;font-stretch:normal;font-size:8.5px;font-family:'HelveticaNeueLT Std';-inkscape-font-specification:HelveticaNeueLTStd-Roman;writing-mode:lr-tb;fill:#666a6f;fill-opacity:1;fill-rule:nonzero;stroke:none"
   id="text150"><tspan
     x="0 2.2014999 6.9274998 11.968 16.532499 21.573 26.137501 30.863501 35.903999 40.468498 45.1945 47.872002 50.235001 56.678001 58.564999 61.2425 65.968498 70.532997 74.782997"
     y="0"
     sodipodi:role="line"
     id="tspan146">Independent witness</tspan><tspan
     x="79.032997"
     y="1.003"
     id="tspan148"> </tspan></text>




<path
   d="m 145.725,502.057 h 11.121 v 11.121 h -11.121 z"
   style="fill:none;stroke:#666a6f;stroke-width:0.44999999;stroke-linecap:butt;stroke-linejoin:miter;stroke-miterlimit:4;stroke-dasharray:none;stroke-opacity:1"
   id="path152"
   inkscape:connector-curvature="0" /><text
   transform="matrix(1,0,0,-1,161.3214,502.8351)"
   style="font-variant:normal;font-weight:normal;font-stretch:normal;font-size:8.5px;font-family:'HelveticaNeueLT Std';-inkscape-font-specification:HelveticaNeueLTStd-Roman;writing-mode:lr-tb;fill:#666a6f;fill-opacity:1;fill-rule:nonzero;stroke:none"
   id="text158"><tspan
     x="0 6.46 9.1374998 13.8635 18.427999"
     y="0"
     sodipodi:role="line"
     id="tspan154">Other</tspan><tspan
     sodipodi:role="line"
     id="tspan156"
     x="0"
     y="10.625" /></text>




<text
   transform="matrix(1,0,0,-1,13.5,427.3321)"
   style="font-variant:normal;font-weight:bold;font-stretch:normal;font-size:10px;font-family:'HelveticaNeueLT Std';-inkscape-font-specification:HelveticaNeueLTStd-Bd;writing-mode:lr-tb;fill:#666a6f;fill-opacity:1;fill-rule:nonzero;stroke:none"
   id="text162"><tspan
     x="0 5.5599999 8.5200005 13.52 20.74 26.48 32.220001 37.59 43.700001 49.630001 55.369999 61.48 64.059998 69.800003 72.580002 80.169998 83.878998 89.988998 95.918999 101.849 107.959"
     y="0"
     sodipodi:role="line"
     id="tspan160">2) Reasonable Grounds</tspan></text>




<text
   transform="matrix(1,0,0,-1,27.5,417.1321)"
   style="font-variant:normal;font-weight:normal;font-stretch:normal;font-size:8.5px;font-family:'HelveticaNeueLT Std';-inkscape-font-specification:HelveticaNeueLTStd-Roman;writing-mode:lr-tb;fill:#666a6f;fill-opacity:1;fill-rule:nonzero;stroke:none"
   id="text172"><tspan
     x="0 7.7384 12.444 16.694 19.056999 23.6215 25.984501 31.14995 34.045052 38.767651 43.139198 47.823551 50.7841 52.725498 57.88755 62.621201 67.661697 70.024696 75.713753 80.8554 86.020851 88.928703 93.757553 97.952301 102.68595 107.72645 110.08945 115.719 120.40335 123.29845 128.0321 132.7377 137.53 139.48331 144.29684 149.17586 151.53885 157.6563 162.21484 166.54221 168.52609 173.21555 177.78004 180.14305 182.48225 188.04379 193.6606 199.67265 201.70755 204.07056 206.43355 212.12344 217.26511 222.43056 225.33755 230.1664 234.36115 239.0948 244.1353 246.49831 248.76355 253.5975 257.96054 260.69669 263.67679 268.49374 275.8403 280.5459 285.34161 288.0191"
     y="0"
     sodipodi:role="line"
     id="tspan164">Was a prescribed Approved Screening Device (ASD), Approved Instrument </tspan><tspan
     x="0 4.9912 7.8217001 10.1847 15.35015 18.246099 22.96785 27.339399 32.02375 34.984299 36.925701 42.087749 46.8214 51.8619 54.224899 59.378448 64.069603 68.3927 72.742996 74.726051 79.420601 84.104103 85.991096 88.354103 93.048653 98.049202 103.0404 105.961 111.0593 113.0126 117.82615 122.47225 125.18885 127.16085 132.14015 136.86615 139.22916 141.86415 146.58675 150.94894 153.62645 155.98946 160.83615 165.1958 169.92944 174.96996 177.33295 179.96796 184.84695 187.20995 189.75571 194.7469 197.72615 204.97665 207.33965 210.2356 214.93781 219.6434 224.0107 228.99001 233.80354 238.48364 243.62531 245.59731 250.1618 252.5248 257.50665 260.41449 265.38104 270.198 275.02429 280.17361 284.42361"
     y="10.2"
     sodipodi:role="line"
     id="tspan166">or prescribed physical coordination test used to form reasonable grounds </tspan><tspan
     x="0 2.635 7.5139999 9.8769999 15.03905 19.72085 21.65205 23.62405 28.1826 32.37735 36.941849 39.304852 42.029099 46.842651 51.48875 54.166248 56.529251 59.252651 64.0662 68.630699 70.993698 76.125153 79.085701 81.046654 85.241402 89.9589 92.86335 94.902496 99.152496 101.5155 106.1956 111.3364 113.26845 115.2005 117.181 120.1118 124.3618 126.7248 129.3598 134.2388 136.60181 141.73241 144.69295 146.6539 150.84865 155.41315 157.77615 162.34065 164.70364 172.06294 176.987 179.62199 184.61235 187.44286 189.80585 194.0006 198.70621 203.4985 205.48241 210.14294 212.11494 216.67944 219.04245 225.46335 230.16811 234.41811 236.7811 241.4153 244.24155 246.77541 251.50905 256.22314 258.85815 263.5918 268.63229 270.9953 275.9967 280.2467"
     y="20.4"
     sodipodi:role="line"
     id="tspan168">to believe that the driver’s ability to drive a motor vehicle was affected by </tspan><tspan
     x="0 4.6834998 6.6673999 11.36195 16.340401 21.15395 26.1222 28.009199 30.3722 35.3634 38.193901 40.5569 45.121399 47.484402 52.615849 55.595951 60.435001 65.251953"
     y="30.6"
     sodipodi:role="line"
     id="tspan170">alcohol or a drug?</tspan></text>




<path
   d="m 28.725,372.257 h 11.121 v 11.121 H 28.725 Z"
   style="fill:none;stroke:#666a6f;stroke-width:0.44999999;stroke-linecap:butt;stroke-linejoin:miter;stroke-miterlimit:4;stroke-dasharray:none;stroke-opacity:1"
   id="path174"
   inkscape:connector-curvature="0" /><text
   transform="matrix(1,0,0,-1,44.3214,372.0321)"
   style="font-variant:normal;font-weight:normal;font-stretch:normal;font-size:8.5px;font-family:'HelveticaNeueLT Std';-inkscape-font-specification:HelveticaNeueLTStd-Roman;writing-mode:lr-tb;fill:#666a6f;fill-opacity:1;fill-rule:nonzero;stroke:none"
   id="text178"><tspan
     x="0 4.5644999 9.1289997 13.379"
     y="0"
     sodipodi:role="line"
     id="tspan176">Yes </tspan></text>




<path
   d="m 66.425,372.257 h 11.121 v 11.121 H 66.425 Z"
   style="fill:none;stroke:#666a6f;stroke-width:0.44999999;stroke-linecap:butt;stroke-linejoin:miter;stroke-miterlimit:4;stroke-dasharray:none;stroke-opacity:1"
   id="path180"
   inkscape:connector-curvature="0" /><text
   transform="matrix(1,0,0,-1,82.0218,372.0321)"
   style="font-variant:normal;font-weight:normal;font-stretch:normal;font-size:8.5px;font-family:'HelveticaNeueLT Std';-inkscape-font-specification:HelveticaNeueLTStd-Roman;writing-mode:lr-tb;fill:#666a6f;fill-opacity:1;fill-rule:nonzero;stroke:none"
   id="text186"><tspan
     x="0 6.1370001"
     y="0"
     sodipodi:role="line"
     id="tspan182">No</tspan><tspan
     x="-53.524502 -51.323002 -48.806999 -46.444 -42.194 -37.629501 -33.379501 -31.0165 -28.6535 -22.210501 -17.484501 -15.5975 -11.033 -6.3070002 -3.944 -1.2665 3.2980001 7.5479999 10.2255 12.5885 19.0315 23.596001 27.846001 30.209 34.773499 39.813999 47.064499 48.9515 53.677502 55.564499 59.814499 62.492001 67.056503 69.734001 74.2985 79.338997"
     y="13.9995"
     sodipodi:role="line"
     id="tspan184">If yes, which test was administered?</tspan></text>




<path
   d="m 28.725,343.757 h 11.121 v 11.121 H 28.725 Z"
   style="fill:none;stroke:#666a6f;stroke-width:0.44999999;stroke-linecap:butt;stroke-linejoin:miter;stroke-miterlimit:4;stroke-dasharray:none;stroke-opacity:1"
   id="path188"
   inkscape:connector-curvature="0" /><text
   transform="matrix(1,0,0,-1,44.3214,343.5321)"
   style="font-variant:normal;font-weight:normal;font-stretch:normal;font-size:8.5px;font-family:'HelveticaNeueLT Std';-inkscape-font-specification:HelveticaNeueLTStd-Roman;writing-mode:lr-tb;fill:#666a6f;fill-opacity:1;fill-rule:nonzero;stroke:none"
   id="text192"><tspan
     x="0 5.5079999 7.395 11.9595 16.838499 20.145 25.653 30.217501 34.943501 39.193501 44.072498 46.903 49.265999 54.145 59.653 64.531998 93.177002 98.684998 104.193 110.177 112.54 117.7335 122.1365 127.177 129.064 131.8945 136.1445 138.50751 144.4915 149.056 151.73351 156.298"
     y="0"
     sodipodi:role="line"
     id="tspan190">Alco-Sensor FST ASD Expiry Date </tspan></text>




<path
   d="m 28.725,329.257 h 11.121 v 11.121 H 28.725 Z"
   style="fill:none;stroke:#666a6f;stroke-width:0.44999999;stroke-linecap:butt;stroke-linejoin:miter;stroke-miterlimit:4;stroke-dasharray:none;stroke-opacity:1"
   id="path194"
   inkscape:connector-curvature="0" /><text
   transform="matrix(1,0,0,-1,44.3214,329.0321)"
   style="font-variant:normal;font-weight:normal;font-stretch:normal;font-size:8.5px;font-family:'HelveticaNeueLT Std';-inkscape-font-specification:HelveticaNeueLTStd-Roman;writing-mode:lr-tb;fill:#666a6f;fill-opacity:1;fill-rule:nonzero;stroke:none"
   id="text198"><tspan
     x="0 5.5079999 10.5485 15.589 18.2665 23.1455 27.3955 31.959999 37.0005 39.363499 41.564999 46.291 50.541 53.218498 56.049 60.775002 68.025497 72.589996 77.316002 79.9935 82.356499 84.557999 88.807999 93.848503 98.413002 102.9775 104.8645 107.3805 111.6305 113.832"
     y="0"
     sodipodi:role="line"
     id="tspan196">Approved Instrument (specify) </tspan></text>




<path
   d="m 28.725,314.757 h 11.121 v 11.121 H 28.725 Z"
   style="fill:none;stroke:#666a6f;stroke-width:0.44999999;stroke-linecap:butt;stroke-linejoin:miter;stroke-miterlimit:4;stroke-dasharray:none;stroke-opacity:1"
   id="path200"
   inkscape:connector-curvature="0" /><text
   transform="matrix(1,0,0,-1,44.3214,314.5321)"
   style="font-variant:normal;font-weight:normal;font-stretch:normal;font-size:8.5px;font-family:'HelveticaNeueLT Std';-inkscape-font-specification:HelveticaNeueLTStd-Roman;writing-mode:lr-tb;fill:#666a6f;fill-opacity:1;fill-rule:nonzero;stroke:none"
   id="text206"><tspan
     x="0 5.5079999 8.1855001 12.75 17 21.564501 24.395 26.282 31.3225 35.887001 40.927502 43.290501 48.7985 53.524502 57.774502 62.024502 63.911499 68.475998 73.040497 74.927498 77.290497 83.427498 88.306503 93.185501 95.862999 100.9035 102.7905 107.5165 112.081 114.7585 116.6455 121.5245 126.2505 128.61349 132.549 137.11349 141.36349"
     y="0"
     sodipodi:role="line"
     id="tspan202">Prescribed Physical Coordination Test</tspan><tspan
     x="-15.8185 -10.9395 -9.0524998 -1.802 2.7625 5.1255002 10.0045 12.5205 14.8835 18.819 23.383499 27.633499 30.311001"
     y="14.501"
     sodipodi:role="line"
     id="tspan204">Time of Test </tspan></text>




<text
   transform="matrix(1,0,0,-1,28.5029,285.0286)"
   style="font-variant:normal;font-weight:bold;font-stretch:normal;font-size:8.5px;font-family:'HelveticaNeueLT Std';-inkscape-font-specification:HelveticaNeueLTStd-Bd;writing-mode:lr-tb;fill:#666a6f;fill-opacity:1;fill-rule:nonzero;stroke:none"
   id="text210"><tspan
     x="0 6.1370001 11.016 15.5805 20.621 22.813999 25.806 28.169001 30.532 36.3545 38.547501 43.426498 48.619999 53.6605 58.854"
     y="0"
     sodipodi:role="line"
     id="tspan208">Result: Alcohol</tspan></text>




<path
   d="m 28.725,270.757 h 11.121 v 11.121 H 28.725 Z"
   style="fill:none;stroke:#666a6f;stroke-width:0.44999999;stroke-linecap:butt;stroke-linejoin:miter;stroke-miterlimit:4;stroke-dasharray:none;stroke-opacity:1"
   id="path212"
   inkscape:connector-curvature="0" /><text
   transform="matrix(1,0,0,-1,44.3214,270.5321)"
   style="font-variant:normal;font-weight:normal;font-stretch:normal;font-size:8.5px;font-family:'HelveticaNeueLT Std';-inkscape-font-specification:HelveticaNeueLTStd-Roman;writing-mode:lr-tb;fill:#666a6f;fill-opacity:1;fill-rule:nonzero;stroke:none"
   id="text216"><tspan
     x="0 4.7259998 9.4519997 13.702 18.427999 23.153999 25.517 32.767502 37.6465 46.1465"
     y="0"
     sodipodi:role="line"
     id="tspan214">51–99 mg% </tspan></text>




<path
   d="m 99.193,270.757 h 11.121 v 11.121 H 99.193 Z"
   style="fill:none;stroke:#666a6f;stroke-width:0.44999999;stroke-linecap:butt;stroke-linejoin:miter;stroke-miterlimit:4;stroke-dasharray:none;stroke-opacity:1"
   id="path218"
   inkscape:connector-curvature="0" /><text
   transform="matrix(1,0,0,-1,114.7892,270.5321)"
   style="font-variant:normal;font-weight:normal;font-stretch:normal;font-size:8.5px;font-family:'HelveticaNeueLT Std';-inkscape-font-specification:HelveticaNeueLTStd-Roman;writing-mode:lr-tb;fill:#666a6f;fill-opacity:1;fill-rule:nonzero;stroke:none"
   id="text222"><tspan
     x="0 6.46 10.71 15.2745 18.105 20.468 25.194 29.92 32.283001 39.533501 44.412498 52.912498"
     y="0"
     sodipodi:role="line"
     id="tspan220">Over 99 mg% </tspan></text>




<path
   d="m 176.426,270.757 h 11.121 v 11.121 h -11.121 z"
   style="fill:none;stroke:#666a6f;stroke-width:0.44999999;stroke-linecap:butt;stroke-linejoin:miter;stroke-miterlimit:4;stroke-dasharray:none;stroke-opacity:1"
   id="path224"
   inkscape:connector-curvature="0" /><text
   transform="matrix(1,0,0,-1,192.0228,270.5321)"
   style="font-variant:normal;font-weight:normal;font-stretch:normal;font-size:8.5px;font-family:'HelveticaNeueLT Std';-inkscape-font-specification:HelveticaNeueLTStd-Roman;writing-mode:lr-tb;fill:#666a6f;fill-opacity:1;fill-rule:nonzero;stroke:none"
   id="text228"><tspan
     x="0 5.8225002 11.3305 17.467501"
     y="0"
     sodipodi:role="line"
     id="tspan226">BAC </tspan></text>




<text
   transform="matrix(1,0,0,-1,28.4998,256.0311)"
   style="font-variant:normal;font-weight:bold;font-stretch:normal;font-size:8.5px;font-family:'HelveticaNeueLT Std';-inkscape-font-specification:HelveticaNeueLTStd-Bd;writing-mode:lr-tb;fill:#666a6f;fill-opacity:1;fill-rule:nonzero;stroke:none"
   id="text232"><tspan
     x="0 6.1370001 11.016 15.5805 20.621 22.813999 25.806 28.169001 30.532 36.830502 40.137001 45.177502"
     y="0"
     sodipodi:role="line"
     id="tspan230">Result: Drug</tspan></text>




<path
   d="m 28.725,241.757 h 11.121 v 11.121 H 28.725 Z"
   style="fill:none;stroke:#666a6f;stroke-width:0.44999999;stroke-linecap:butt;stroke-linejoin:miter;stroke-miterlimit:4;stroke-dasharray:none;stroke-opacity:1"
   id="path234"
   inkscape:connector-curvature="0" /><text
   transform="matrix(1,0,0,-1,44.3214,241.5321)"
   style="font-variant:normal;font-weight:normal;font-stretch:normal;font-size:8.5px;font-family:'HelveticaNeueLT Std';-inkscape-font-specification:HelveticaNeueLTStd-Roman;writing-mode:lr-tb;fill:#666a6f;fill-opacity:1;fill-rule:nonzero;stroke:none"
   id="text238"><tspan
     x="0 5.5079999 10.5485 12.4355 14.3225 16.209499 18.886999 23.136999 25.5 28.1775 33.056499 35.419498 40.459999 43.290501 45.177502 49.427502 53.992001 56.355 60.919498 63.282501 65.7985 70.362999 74.927498 77.605003 82.169502 87.209999 89.572998 94.613503 98.863503 101.2265 105.791 108.154 113.1945 116.025 120.751"
     y="0"
     sodipodi:role="line"
     id="tspan236">Ability to drive affected by a drug</tspan></text>




<text
   transform="scale(1,-1)"
   style="font-variant:normal;font-weight:bold;font-stretch:normal;font-size:10px;font-family:'HelveticaNeueLT Std';-inkscape-font-specification:HelveticaNeueLTStd-Bd;writing-mode:lr-tb;fill:#666a6f;fill-opacity:1;fill-rule:nonzero;stroke:none"
   id="text242"
   x="13.3125"
   y="-227.56335"><tspan
     x="13.3125 18.872499 21.8325 26.8325 33.682499 37.012501 40.532497 46.272499 50.162498 52.942501 56.462502 62.392502 68.1325 70.912498 77.582497 81.291496 87.401497 93.331497 95.911499 102.0215 104.6015 108.1215 110.7015 116.8115 122.7415 125.5215 132.01149 137.7515 141.64149 146.84151 152.5815"
     y="-227.56335"
     sodipodi:role="line"
     id="tspan240">3) After the Prohibition Served</tspan></text>




<text
   transform="matrix(0.99,0,0,-1,28.5,211.0321)"
   style="font-variant:normal;font-weight:normal;font-stretch:normal;font-size:8.5px;font-family:'HelveticaNeueLT Std';-inkscape-font-specification:HelveticaNeueLTStd-Roman;writing-mode:lr-tb;fill:#666a6f;fill-opacity:1;fill-rule:nonzero;stroke:none"
   id="text246"><tspan
     x="0 5.8565001 7.6160002 12.529 14.7645 17.314501 21.913 26.35 28.585501 33.498501 36.2015 37.960999 42.0835 46.5205 49.223499 51.459 54.008999 58.445999 63.359001 67.957497 72.394501 76.516998 79.067001 81.302498 85.739502 87.974998 92.888 95.438004 99.875 104.312 106.862 111.4605 113.696 116.246 120.683 124.8055 127.3555 129.591 134.3425 137.0455 139.28101 144.194 146.744 151.181 155.3035 159.74049 162.4435 164.203 169.116 173.55299 178.466 180.70151 185.6145 190.213 194.33549 198.45799 200.2175 204.6545 209.09151 210.851 213.0865 217.5235 222.27499 227.0265 229.57651 234.4895 236.24899 240.8475 245.2845 247.8345 249.59399 254.3455 258.944 261.1795 263.72949 268.1665 272.289 274.83899"
     y="0"
     sodipodi:role="line"
     id="tspan244">Did the driver request a breath test or prescribed physical coordination test?</tspan></text>




<path
   d="m 28.725,196.757 h 11.121 v 11.121 H 28.725 Z"
   style="fill:none;stroke:#666a6f;stroke-width:0.44999999;stroke-linecap:butt;stroke-linejoin:miter;stroke-miterlimit:4;stroke-dasharray:none;stroke-opacity:1"
   id="path248"
   inkscape:connector-curvature="0" /><text
   transform="matrix(1,0,0,-1,44.3214,196.5321)"
   style="font-variant:normal;font-weight:normal;font-stretch:normal;font-size:8.5px;font-family:'HelveticaNeueLT Std';-inkscape-font-specification:HelveticaNeueLTStd-Roman;writing-mode:lr-tb;fill:#666a6f;fill-opacity:1;fill-rule:nonzero;stroke:none"
   id="text252"><tspan
     x="0 4.5644999 9.1289997 13.379"
     y="0"
     sodipodi:role="line"
     id="tspan250">Yes </tspan></text>




<path
   d="m 66.425,196.757 h 11.121 v 11.121 H 66.425 Z"
   style="fill:none;stroke:#666a6f;stroke-width:0.44999999;stroke-linecap:butt;stroke-linejoin:miter;stroke-miterlimit:4;stroke-dasharray:none;stroke-opacity:1"
   id="path254"
   inkscape:connector-curvature="0" /><text
   transform="matrix(1,0,0,-1,82.0218,196.5321)"
   style="font-variant:normal;font-weight:normal;font-stretch:normal;font-size:8.5px;font-family:'HelveticaNeueLT Std';-inkscape-font-specification:HelveticaNeueLTStd-Roman;writing-mode:lr-tb;fill:#666a6f;fill-opacity:1;fill-rule:nonzero;stroke:none"
   id="text260"><tspan
     x="0 6.1370001 11.016"
     y="0"
     sodipodi:role="line"
     id="tspan256">No </tspan><tspan
     x="-53.524502 -51.323002 -48.806999 -46.444 -42.194 -37.629501 -33.379501 -31.0165 -28.6535 -22.210501 -17.484501 -15.5975 -11.033 -6.3070002 -3.944 -1.2665 3.2980001 7.5479999 10.2255 12.5885 19.0315 23.596001 27.846001 30.209 34.773499 39.813999 47.064499 48.9515 53.677502 55.564499 59.814499 62.492001 67.056503 69.734001 74.2985 79.338997"
     y="13.9995"
     sodipodi:role="line"
     id="tspan258">If yes, which test was administered?</tspan></text>




<path
   d="m 28.725,168.257 h 11.121 v 11.121 H 28.725 Z"
   style="fill:none;stroke:#666a6f;stroke-width:0.44999999;stroke-linecap:butt;stroke-linejoin:miter;stroke-miterlimit:4;stroke-dasharray:none;stroke-opacity:1"
   id="path262"
   inkscape:connector-curvature="0" /><text
   transform="matrix(1,0,0,-1,44.3214,168.0321)"
   style="font-variant:normal;font-weight:normal;font-stretch:normal;font-size:8.5px;font-family:'HelveticaNeueLT Std';-inkscape-font-specification:HelveticaNeueLTStd-Roman;writing-mode:lr-tb;fill:#666a6f;fill-opacity:1;fill-rule:nonzero;stroke:none"
   id="text266"><tspan
     x="0 4.5644999 9.1289997 13.379 15.742 18.105 23.613001 25.5 30.064501 34.943501 38.25 43.757999 48.322498 53.0485 57.2985 62.177502 65.008003 67.371002 72.25 77.758003 82.637001 113.1775 118.6855 124.1935 130.17751 132.5405 137.73399 142.13699 147.17751 149.0645 151.895 156.145 158.508 164.492 169.0565 171.73399 176.29849"
     y="0"
     sodipodi:role="line"
     id="tspan264">Yes, Alco-Sensor FST ASD Expiry Date </tspan></text>




<path
   d="m 28.725,153.757 h 11.121 v 11.121 H 28.725 Z"
   style="fill:none;stroke:#666a6f;stroke-width:0.44999999;stroke-linecap:butt;stroke-linejoin:miter;stroke-miterlimit:4;stroke-dasharray:none;stroke-opacity:1"
   id="path268"
   inkscape:connector-curvature="0" /><text
   transform="matrix(1,0,0,-1,44.3214,153.5321)"
   style="font-variant:normal;font-weight:normal;font-stretch:normal;font-size:8.5px;font-family:'HelveticaNeueLT Std';-inkscape-font-specification:HelveticaNeueLTStd-Roman;writing-mode:lr-tb;fill:#666a6f;fill-opacity:1;fill-rule:nonzero;stroke:none"
   id="text272"><tspan
     x="0 4.5644999 9.1289997 13.379 15.742 18.105 23.613001 28.6535 33.694 36.371498 41.2505 45.5005 50.064999 55.105499 57.468498 59.669998 64.396004 68.646004 71.323502 74.153999 78.879997 86.130501 90.695 95.420998 98.098503 100.4615 102.663 106.913 111.9535 116.518 121.0825 122.9695 125.4855 129.7355 131.937"
     y="0"
     sodipodi:role="line"
     id="tspan270">Yes, Approved Instrument (specify) </tspan></text>




<path
   d="m 28.725,139.257 h 11.121 v 11.121 H 28.725 Z"
   style="fill:none;stroke:#666a6f;stroke-width:0.44999999;stroke-linecap:butt;stroke-linejoin:miter;stroke-miterlimit:4;stroke-dasharray:none;stroke-opacity:1"
   id="path274"
   inkscape:connector-curvature="0" /><text
   transform="matrix(1,0,0,-1,44.3214,139.0321)"
   style="font-variant:normal;font-weight:normal;font-stretch:normal;font-size:8.5px;font-family:'HelveticaNeueLT Std';-inkscape-font-specification:HelveticaNeueLTStd-Roman;writing-mode:lr-tb;fill:#666a6f;fill-opacity:1;fill-rule:nonzero;stroke:none"
   id="text278"><tspan
     x="0 4.5644999 9.1289997 13.379 15.742 18.105 23.613001 26.290501 30.855 35.105 39.669498 42.5 44.387001 49.427502 53.992001 59.032501 61.3955 66.903503 71.629501 75.879501 80.129501 82.016502 86.581001 91.1455 93.032501 95.3955 101.5325 106.4115 111.2905 113.968 119.0085 120.8955 125.6215 130.186 132.86349 134.7505 139.6295 144.3555 146.71851 150.65401 155.21851 159.46851"
     y="0"
     sodipodi:role="line"
     id="tspan276">Yes, Prescribed Physical Coordination Test</tspan></text>




<path
   d="m 28.725,124.757 h 11.121 v 11.121 H 28.725 Z"
   style="fill:none;stroke:#666a6f;stroke-width:0.44999999;stroke-linecap:butt;stroke-linejoin:miter;stroke-miterlimit:4;stroke-dasharray:none;stroke-opacity:1"
   id="path280"
   inkscape:connector-curvature="0" /><text
   transform="matrix(1,0,0,-1,44.3214,124.5321)"
   style="font-variant:normal;font-weight:normal;font-stretch:normal;font-size:8.5px;font-family:'HelveticaNeueLT Std';-inkscape-font-specification:HelveticaNeueLTStd-Roman;writing-mode:lr-tb;fill:#666a6f;fill-opacity:1;fill-rule:nonzero;stroke:none"
   id="text286"><tspan
     x="0 6.1370001 11.016 13.379 15.742 18.4195 22.983999 27.233999 29.911501 32.274502 38.717499 43.282001 47.532001 49.895 54.459499 59.5 66.750504 68.637497 73.363503 75.250504 79.500504 82.178001 86.7425 89.419998 93.984497 99.025002 101.388 103.275 108.001 110.364 112.88 117.759 120.5895 127.84 129.72701 134.453 139.332 141.69501 144.3725 148.937 153.5015 157.7515 162.63049 167.35651 171.92101 176.9615 178.8485 183.41299 185.776 190.655 193.3325 198.2115 202.9375 207.6635 212.70399"
     y="0"
     sodipodi:role="line"
     id="tspan282">No, test was administered in forming reasonable grounds</tspan><tspan
     x="-15.8185 -10.9395 -9.0524998 -1.802 2.7625 5.1255002 10.0045 12.5205 14.8835 18.819 23.383499 27.633499 30.311001"
     y="14.501"
     sodipodi:role="line"
     id="tspan284">Time of Test </tspan></text>




<text
   transform="matrix(1,0,0,-1,28.5029,95.5301)"
   style="font-variant:normal;font-weight:bold;font-stretch:normal;font-size:8.5px;font-family:'HelveticaNeueLT Std';-inkscape-font-specification:HelveticaNeueLTStd-Bd;writing-mode:lr-tb;fill:#666a6f;fill-opacity:1;fill-rule:nonzero;stroke:none"
   id="text290"><tspan
     x="0 6.1370001 11.016 15.5805 20.621 22.813999 25.806 28.169001 30.532 36.3545 38.547501 43.426498 48.619999 53.6605 58.854"
     y="0"
     sodipodi:role="line"
     id="tspan288">Result: Alcohol</tspan></text>




<path
   d="M 28.725,81.257 H 39.846 V 92.378 H 28.725 Z"
   style="fill:none;stroke:#666a6f;stroke-width:0.44999999;stroke-linecap:butt;stroke-linejoin:miter;stroke-miterlimit:4;stroke-dasharray:none;stroke-opacity:1"
   id="path292"
   inkscape:connector-curvature="0" /><text
   transform="matrix(1,0,0,-1,44.3214,81.0321)"
   style="font-variant:normal;font-weight:normal;font-stretch:normal;font-size:8.5px;font-family:'HelveticaNeueLT Std';-inkscape-font-specification:HelveticaNeueLTStd-Roman;writing-mode:lr-tb;fill:#666a6f;fill-opacity:1;fill-rule:nonzero;stroke:none"
   id="text296"><tspan
     x="0 4.7259998 9.4519997 13.702 18.427999 23.153999 25.517 32.767502 37.6465 46.1465"
     y="0"
     sodipodi:role="line"
     id="tspan294">51–99 mg% </tspan></text>




<path
   d="m 99.193,81.257 h 11.121 V 92.378 H 99.193 Z"
   style="fill:none;stroke:#666a6f;stroke-width:0.44999999;stroke-linecap:butt;stroke-linejoin:miter;stroke-miterlimit:4;stroke-dasharray:none;stroke-opacity:1"
   id="path298"
   inkscape:connector-curvature="0" /><text
   transform="matrix(1,0,0,-1,114.7892,81.0321)"
   style="font-variant:normal;font-weight:normal;font-stretch:normal;font-size:8.5px;font-family:'HelveticaNeueLT Std';-inkscape-font-specification:HelveticaNeueLTStd-Roman;writing-mode:lr-tb;fill:#666a6f;fill-opacity:1;fill-rule:nonzero;stroke:none"
   id="text302"><tspan
     x="0 6.46 10.71 15.2745 18.105 20.468 25.194 29.92 32.283001 39.533501 44.412498 52.912498"
     y="0"
     sodipodi:role="line"
     id="tspan300">Over 99 mg% </tspan></text>




<path
   d="m 176.426,81.257 h 11.121 v 11.121 h -11.121 z"
   style="fill:none;stroke:#666a6f;stroke-width:0.44999999;stroke-linecap:butt;stroke-linejoin:miter;stroke-miterlimit:4;stroke-dasharray:none;stroke-opacity:1"
   id="path304"
   inkscape:connector-curvature="0" /><text
   transform="matrix(1,0,0,-1,192.0228,81.0321)"
   style="font-variant:normal;font-weight:normal;font-stretch:normal;font-size:8.5px;font-family:'HelveticaNeueLT Std';-inkscape-font-specification:HelveticaNeueLTStd-Roman;writing-mode:lr-tb;fill:#666a6f;fill-opacity:1;fill-rule:nonzero;stroke:none"
   id="text308"><tspan
     x="0 5.8225002 11.3305 17.467501"
     y="0"
     sodipodi:role="line"
     id="tspan306">BAC </tspan></text>




<text
   transform="matrix(1,0,0,-1,28.4998,66.5311)"
   style="font-variant:normal;font-weight:bold;font-stretch:normal;font-size:8.5px;font-family:'HelveticaNeueLT Std';-inkscape-font-specification:HelveticaNeueLTStd-Bd;writing-mode:lr-tb;fill:#666a6f;fill-opacity:1;fill-rule:nonzero;stroke:none"
   id="text312"><tspan
     x="0 6.1370001 11.016 15.5805 20.621 22.813999 25.806 28.169001 30.532 36.830502 40.137001 45.177502"
     y="0"
     sodipodi:role="line"
     id="tspan310">Result: Drug</tspan></text>




<path
   d="M 28.725,52.257 H 39.846 V 63.378 H 28.725 Z"
   style="fill:none;stroke:#666a6f;stroke-width:0.44999999;stroke-linecap:butt;stroke-linejoin:miter;stroke-miterlimit:4;stroke-dasharray:none;stroke-opacity:1"
   id="path314"
   inkscape:connector-curvature="0" /><text
   transform="matrix(1,0,0,-1,44.3214,52.0321)"
   style="font-variant:normal;font-weight:normal;font-stretch:normal;font-size:8.5px;font-family:'HelveticaNeueLT Std';-inkscape-font-specification:HelveticaNeueLTStd-Roman;writing-mode:lr-tb;fill:#666a6f;fill-opacity:1;fill-rule:nonzero;stroke:none"
   id="text318"><tspan
     x="0 5.5079999 10.5485 12.4355 14.3225 16.209499 18.886999 23.136999 25.5 28.1775 33.056499 35.419498 40.459999 43.290501 45.177502 49.427502 53.992001 56.355 60.919498 63.282501 65.7985 70.362999 74.927498 77.605003 82.169502 87.209999 89.572998 94.613503 98.863503 101.2265 105.791 108.154 113.1945 116.025 120.751"
     y="0"
     sodipodi:role="line"
     id="tspan316">Ability to drive affected by a drug</tspan></text>




<text
   xml:space="preserve"
   style="font-style:normal;font-weight:normal;font-size:12px;line-height:1.25;font-family:sans-serif;letter-spacing:0px;word-spacing:0px;fill:#000000;fill-opacity:1;stroke:none;stroke-width:0.75"
   x="86.0625"
   y="-577.96875"
   id="text1135"
   transform="scale(1,-1)"><tspan
     sodipodi:role="line"
     id="tspan1133"
     x="86.0625"
     y="-577.96875"
     style="font-weight:bold;fill:#666a6f;fill-opacity:1;stroke-width:0.75">Officer’s Report</tspan></text>




<path
   d="m 222.49422,501.49388 h 11.121 v 11.121 h -11.121 z"
   style="fill:none;stroke:#666a6f;stroke-width:0.44999999;stroke-linecap:butt;stroke-linejoin:miter;stroke-miterlimit:4;stroke-dasharray:none;stroke-opacity:1"
   id="path144-3"
   inkscape:connector-curvature="0" /><text
   y="-502.27197"
   x="238.09062"
   style="font-variant:normal;font-weight:normal;font-stretch:normal;font-size:8.50000021px;font-family:sans-serif;-inkscape-font-specification:'sans-serif, Normal';writing-mode:lr;fill:#666a6f;fill-opacity:1;fill-rule:nonzero;stroke:none;stroke-width:0.99999994;font-style:normal;text-anchor:start;text-align:start;font-variant-ligatures:normal;font-variant-caps:normal;font-variant-numeric:normal;font-feature-settings:normal;"
   id="text150-6"
   transform="scale(1,-1)"><tspan
     sodipodi:role="line"
     id="tspan188">Video surveillance</tspan><tspan
     sodipodi:role="line"
     id="tspan191"></tspan></text>
</g></svg>