<?xml version="1.0" encoding="UTF-8" standalone="no"?>
<!-- Created with Inkscape (http://www.inkscape.org/) -->

<svg
   xmlns:dc="http://purl.org/dc/elements/1.1/"
   xmlns:cc="http://creativecommons.org/ns#"
   xmlns:rdf="http://www.w3.org/1999/02/22-rdf-syntax-ns#"
   xmlns:svg="http://www.w3.org/2000/svg"
   xmlns="http://www.w3.org/2000/svg"
   xmlns:sodipodi="http://sodipodi.sourceforge.net/DTD/sodipodi-0.dtd"
   xmlns:inkscape="http://www.inkscape.org/namespaces/inkscape"
   version="1.1"
   id="svg2"
   xml:space="preserve"
   width="448"
   height="936"
   viewBox="0 0 448 936"
   sodipodi:docname="MV2906_102018.svg"
   inkscape:export-filename="/home/jlonge/code/roadsafety/web_app/public/assets/MV2906_102018_notice.png"
   inkscape:export-xdpi="300"
   inkscape:export-ydpi="300"
   inkscape:version="0.92.5 (2060ec1f9f, 2020-04-08)"><metadata
     id="metadata8"><rdf:RDF><cc:Work
         rdf:about=""><dc:format>image/svg+xml</dc:format><dc:type
           rdf:resource="http://purl.org/dc/dcmitype/StillImage" /><dc:title></dc:title></cc:Work></rdf:RDF></metadata><defs
     id="defs6"><clipPath
       clipPathUnits="userSpaceOnUse"
       id="clipPath20"><path
         d="M 0,702 H 336 V 0 H 0 Z"
         id="path18"
         inkscape:connector-curvature="0" /></clipPath><clipPath
       clipPathUnits="userSpaceOnUse"
       id="clipPath428"><path
         d="M 0,0 H 336 V 702 H 0 Z"
         id="path426"
         inkscape:connector-curvature="0" /></clipPath></defs><sodipodi:namedview
     pagecolor="#ffffff"
     bordercolor="#666666"
     borderopacity="1"
     objecttolerance="10"
     gridtolerance="10"
     guidetolerance="10"
     inkscape:pageopacity="0"
     inkscape:pageshadow="2"
     inkscape:window-width="759"
     inkscape:window-height="465"
     id="namedview4"
     showgrid="false"
     inkscape:zoom="1.008547"
     inkscape:cx="224"
     inkscape:cy="586.98305"
     inkscape:window-x="1160"
     inkscape:window-y="987"
     inkscape:window-maximized="0"
     inkscape:current-layer="g10" /><g
     id="g10"
     inkscape:groupmode="layer"
     inkscape:label="MV2906_102018"
     transform="matrix(1.3333333,0,0,-1.3333333,0,936)"><g
       id="g12"><g
         id="g14"><g
           id="g16"
           clip-path="url(#clipPath20)"><g
             id="g22"
             transform="translate(-30.65,656.75)"><path
               d="M 0,0 H 36"
               style="fill:none;stroke:#231f20;stroke-width:0.5;stroke-linecap:butt;stroke-linejoin:miter;stroke-miterlimit:4;stroke-dasharray:9.6, 3.6;stroke-dashoffset:0;stroke-opacity:1"
               id="path24"
               inkscape:connector-curvature="0" /></g><g
             id="g26"
             transform="translate(329.5,656.75)"><path
               d="M 0,0 H 36"
               style="fill:none;stroke:#231f20;stroke-width:0.5;stroke-linecap:butt;stroke-linejoin:miter;stroke-miterlimit:4;stroke-dasharray:9.6, 3.6;stroke-dashoffset:0;stroke-opacity:1"
               id="path28"
               inkscape:connector-curvature="0" /></g><g
             id="g30"
             transform="translate(-30.8,44.75)"><path
               d="M 0,0 H 36"
               style="fill:none;stroke:#231f20;stroke-width:0.5;stroke-linecap:butt;stroke-linejoin:miter;stroke-miterlimit:4;stroke-dasharray:9.6, 3.6;stroke-dashoffset:0;stroke-opacity:1"
               id="path32"
               inkscape:connector-curvature="0" /></g><g
             id="g34"
             transform="translate(329.35,44.75)"><path
               d="M 0,0 H 36"
               style="fill:none;stroke:#231f20;stroke-width:0.5;stroke-linecap:butt;stroke-linejoin:miter;stroke-miterlimit:4;stroke-dasharray:9.6, 3.6;stroke-dashoffset:0;stroke-opacity:1"
               id="path36"
               inkscape:connector-curvature="0" /></g></g></g></g><g
       id="g38"
       transform="matrix(1.0004058,0,0,-1.7436455,168,351)"><path
         d="m -153.812,62.418 h 307.5 V 14.874 h -307.5 z"
         style="fill:none;stroke:#231f20;stroke-width:0.5;stroke-linecap:butt;stroke-linejoin:miter;stroke-miterlimit:4;stroke-dasharray:none;stroke-opacity:1"
         id="path40"
         inkscape:connector-curvature="0" /></g><path
       d="m 15.624,328.75 h 304.624 v 147.5 H 15.624 Z"
       style="fill:#f4f4f4;fill-opacity:1;fill-rule:evenodd;stroke:#1a5dad;stroke-width:3.5;stroke-linecap:butt;stroke-linejoin:miter;stroke-miterlimit:4;stroke-dasharray:none;stroke-opacity:1"
       id="path42"
       inkscape:connector-curvature="0" /><path
       d="M 15.75,576.675 H 321.5 v 21.828 H 15.75 Z"
       style="fill:#f4f4f4;fill-opacity:1;fill-rule:nonzero;stroke:none"
       id="path44"
       inkscape:connector-curvature="0" /><path
       d="m 15.75,553.5 h 213.437 v 24.7 H 15.75 Z"
       style="fill:#f4f4f4;fill-opacity:1;fill-rule:nonzero;stroke:none"
       id="path46"
       inkscape:connector-curvature="0" /><path
       d="m 247.235,270.45 h 74.177 v 28.341 h -74.177 z"
       style="fill:#f4f4f4;fill-opacity:1;fill-rule:nonzero;stroke:none"
       id="path48"
       inkscape:connector-curvature="0" /><path
       d="m 202.179,206.803 h 119.234 v 22.648 H 202.179 Z"
       style="fill:#f4f4f4;fill-opacity:1;fill-rule:nonzero;stroke:none"
       id="path50"
       inkscape:connector-curvature="0" /><text
       transform="matrix(1,0,0,-1,123.5984,232.9261)"
       style="font-variant:normal;font-weight:bold;font-stretch:normal;font-size:7px;font-family:'HelveticaNeueLT Std';-inkscape-font-specification:HelveticaNeueLTStd-Bd;writing-mode:lr-tb;fill:#231f20;fill-opacity:1;fill-rule:nonzero;stroke:none"
       id="text54"><tspan
         x="0 5.1869998 7.2519999 11.795 16.464001 21.91 26.452999 28.518 32.794998 34.860001 40.306 45.493 47.438999 52.884998 57.035999 58.981998 63.391998 67.928001 73.114998 75.18 80.366997 84.517998"
         y="0"
         sodipodi:role="line"
         id="tspan52">DISPOSITION OF VEHICLE</tspan></text>
<path
       d="m 14.25,242.167 h 307.327 v 28.31 H 14.25 Z"
       style="fill:#f4f4f4;fill-opacity:1;fill-rule:nonzero;stroke:none"
       id="path56"
       inkscape:connector-curvature="0" /><path
       d="M 14.124,117.562 H 321.748 V 229.625 H 14.124 Z"
       style="fill:none;stroke:#231f20;stroke-width:0.5;stroke-linecap:butt;stroke-linejoin:miter;stroke-miterlimit:4;stroke-dasharray:none;stroke-opacity:1"
       id="path58"
       inkscape:connector-curvature="0" /><path
       d="m 149.64,506.25 h 172.11 v 24.03 H 149.64 Z"
       style="fill:#f4f4f4;fill-opacity:1;fill-rule:nonzero;stroke:none"
       id="path60"
       inkscape:connector-curvature="0" /><g
       id="g62"
       transform="translate(149.386,505.95)"><path
         d="M 0,0 V 24.618"
         style="fill:none;stroke:#231f20;stroke-width:0.5;stroke-linecap:butt;stroke-linejoin:miter;stroke-miterlimit:4;stroke-dasharray:none;stroke-opacity:1"
         id="path64"
         inkscape:connector-curvature="0" /></g><g
       id="g66"
       transform="translate(183.8813,506.052)"><path
         d="M 0,0 V 11.556"
         style="fill:none;stroke:#231f20;stroke-width:0.5;stroke-linecap:butt;stroke-linejoin:miter;stroke-miterlimit:4;stroke-dasharray:none;stroke-opacity:1"
         id="path68"
         inkscape:connector-curvature="0" /></g><g
       id="g70"
       transform="translate(166.7053,506.052)"><path
         d="M 0,0 V 7.38"
         style="fill:none;stroke:#231f20;stroke-width:0.5;stroke-linecap:butt;stroke-linejoin:miter;stroke-miterlimit:4;stroke-dasharray:none;stroke-opacity:1"
         id="path72"
         inkscape:connector-curvature="0" /></g><text
       transform="matrix(1,0,0,-1,16,523.316)"
       style="font-variant:normal;font-weight:normal;font-stretch:normal;font-size:6px;font-family:'HelveticaNeueLT Std';-inkscape-font-specification:HelveticaNeueLTStd-Roman;writing-mode:lr-tb;fill:#231f20;fill-opacity:1;fill-rule:nonzero;stroke:none"
       id="text80"><tspan
         x="0 3.888 8.2200003 12.78 17.112 20.778 22.445999 26.778 31.110001 36.335999 40.445999 44.112 48.222"
         y="0"
         sodipodi:role="line"
         id="tspan74">PHONE NUMBER </tspan><tspan
         x="136.67999 140.56799 144.89999 148.01401 149.68201 154.01401 158.57401 162.798"
         y="-0.090000004"
         sodipodi:role="line"
         id="tspan76">PUJ CODE</tspan><tspan
         x="1.9680001 5.3039999 9.8640003 14.196 17.532 20.976 22.530001 27.09 31.422001 33.09 37.650002 41.094002 42.762001 46.650002 50.316002 54.203999 58.535999 62.202 63.869999 68.43 71.874001 75.318001 76.872002 81.204002 84.870003 88.980003 90.648003 94.536003 96.204002 100.314 103.98 108.54 112.872 116.538 120.426 123.87 125.538 128.98199 133.54201 137.65199 139.32001 143.20799 147.53999 151.64999 155.75999 159.42599 163.758 167.98199 171.64799 175.758 177.42599 181.98599 185.42999 187.09801 191.32201 195.43201 196.98599 200.65199 204.31799 208.42799 210.09599 213.98399 215.65199 218.98801 220.54201 224.87399 228.53999 232.87199 237.20399"
         y="205.98"
         sodipodi:role="line"
         id="tspan78">LOCATION OF PEACE OFFICER’S REQUEST FOR SURRENDER OF DRIVER’S LICENCE</tspan></text>
<g
       id="g82"
       transform="matrix(1.0080773,0,0,-1,168,351)"><g
         id="g84"
         transform="translate(-152.1536,51.8587)"><path
           d="M 0,0 H 304.5"
           style="fill:none;stroke:#231f20;stroke-width:0.5;stroke-linecap:butt;stroke-linejoin:miter;stroke-miterlimit:4;stroke-dasharray:none;stroke-opacity:1"
           id="path86"
           inkscape:connector-curvature="0" /></g></g><g
       id="g88"
       transform="matrix(1.0080773,0,0,-1,168,351)"><g
         id="g90"
         transform="translate(-152.4036,80.4587)"><path
           d="M 0,0 H 304.75"
           style="fill:none;stroke:#231f20;stroke-width:0.5;stroke-linecap:butt;stroke-linejoin:miter;stroke-miterlimit:4;stroke-dasharray:none;stroke-opacity:1"
           id="path92"
           inkscape:connector-curvature="0" /></g></g><text
       transform="matrix(1,0,0,-1,17.9673,292.6074)"
       style="font-variant:normal;font-weight:normal;font-stretch:normal;font-size:6px;font-family:'HelveticaNeueLT Std';-inkscape-font-specification:HelveticaNeueLTStd-Roman;writing-mode:lr-tb;fill:#231f20;fill-opacity:1;fill-rule:nonzero;stroke:none"
       id="text98"><tspan
         x="0 3.888 5.4419999 9.9960003 14.328 17.664 21.108 25.440001 29.549999 33.216 34.883999 39.444 42.888 44.556 48.444 52.110001 55.998001 60.330002 63.995998 65.664001 70.223999 73.667999 77.112 78.666 82.998001 86.664001 90.774002 92.442001 93.996002 97.884003 101.772 106.104 107.658 111.99 116.544 118.212 122.1 126.432 130.32001 134.20799 137.87399 142.20599 146.09399 147.64799 152.20799 156.53999 158.20799 162.53999 167.10001 170.54401 172.09801 176.42999 180.09599 234.666 238.776 242.664 246.888 251.442 255.108 256.776 261.108 265.44 270.66599 274.776 278.44199"
         y="0"
         sodipodi:role="line"
         id="tspan94">SIGNATURE OF PEACE OFFICER ISSUING SUSPENSION NOTICE BADGE NUMBER</tspan><tspan
         x="0 3.888 8.448 11.784 13.338 17.67 21.336 23.004 26.892 31.445999 35.112 39.444 43.776001 47.664001 49.332001 53.891998 58.001999 59.669998 63.779999 68.112 73.337997 77.225998 78.893997 83.225998 87.557999 89.112 92.556 189 192.888 197.442 201.108 205.44 209.772 213.66 215.328 218.772 220.326 223.662 227.328 228.996 233.328 237.66 242.886 246.996 250.662"
         y="28.398001"
         sodipodi:role="line"
         id="tspan96">POLICE AGENCY OR RCMP UNIT AGENCY FILE NUMBER</tspan></text>
<g
       id="g100"
       transform="translate(50.8,206.474)"><path
         d="M 0,0 V 22.85"
         style="fill:none;stroke:#231f20;stroke-width:0.5;stroke-linecap:butt;stroke-linejoin:miter;stroke-miterlimit:4;stroke-dasharray:none;stroke-opacity:1"
         id="path102"
         inkscape:connector-curvature="0" /></g><g
       id="g104"
       transform="translate(104.55,206.274)"><path
         d="M 0,0 V 22.75"
         style="fill:none;stroke:#231f20;stroke-width:0.5;stroke-linecap:butt;stroke-linejoin:miter;stroke-miterlimit:4;stroke-dasharray:none;stroke-opacity:1"
         id="path106"
         inkscape:connector-curvature="0" /></g><g
       id="g108"
       transform="translate(254.85,206.8172)"><path
         d="M 0,0 V 22.457"
         style="fill:none;stroke:#231f20;stroke-width:0.5;stroke-linecap:butt;stroke-linejoin:miter;stroke-miterlimit:4;stroke-dasharray:none;stroke-opacity:1"
         id="path110"
         inkscape:connector-curvature="0" /></g><g
       id="g112"
       transform="translate(154.05,206.424)"><path
         d="M 0,0 V 22.65"
         style="fill:none;stroke:#231f20;stroke-width:0.5;stroke-linecap:butt;stroke-linejoin:miter;stroke-miterlimit:4;stroke-dasharray:none;stroke-opacity:1"
         id="path114"
         inkscape:connector-curvature="0" /></g><text
       transform="matrix(1,0,0,-1,17.3587,132.4901)"
       style="font-variant:normal;font-weight:normal;font-stretch:normal;font-size:6px;font-family:'HelveticaNeueLT Std';-inkscape-font-specification:HelveticaNeueLTStd-Roman;writing-mode:lr-tb;fill:#231f20;fill-opacity:1;fill-rule:nonzero;stroke:none"
       id="text118"><tspan
         x="0 3.888 5.4419999 9.9960003 14.328 17.664 21.108 25.440001 29.549999 33.216 34.883999 39.444 42.888 44.556 48.444 52.110001 56.220001 60.108002 64.667999 69 70.667999 74.778 78.444 82.776001 86.442001 87.996002 91.662003 93.216003 97.547997 102.102 103.77 107.436 111.102 115.434 116.988 121.32 124.656 128.32201 166.002 170.226 173.562 177.006 180.672 182.34 186.228 190.56 194.784 196.452 199.896 201.45 206.67599 210.342 212.00999 216.12 219.786 223.12199 226.78799 230.67599 234.564 238.23"
         y="0"
         sodipodi:role="line"
         id="tspan116">SIGNATURE OF PERSON RECEIVING VEHICLE DATE AND TIME RELEASED</tspan></text>
<text
       transform="matrix(1,0,0,-1,16.95,98.6181)"
       style="font-variant:normal;font-weight:normal;font-stretch:normal;font-size:6px;font-family:'HelveticaNeueLT Std';-inkscape-font-specification:HelveticaNeueLTStd-Roman;writing-mode:lr-tb;fill:#231f20;fill-opacity:1;fill-rule:nonzero;stroke:none"
       id="text122"><tspan
         x="0 4.224 7.5599999 11.004 14.67 16.337999 20.226 24.558001 28.782 30.450001 33.894001 35.448002 40.674 44.34 46.007999 50.568001 54.012001 55.68 59.790001 63.456001 66.900002 71.232002 75.342003"
         y="0"
         sodipodi:role="line"
         id="tspan120">DATE AND TIME OF RETURN</tspan></text>
<path
       d="m 169.829,90.15 h 7.4 V 97 h -7.4 z"
       style="fill:none;stroke:#231f20;stroke-width:0.5;stroke-linecap:butt;stroke-linejoin:miter;stroke-miterlimit:4;stroke-dasharray:none;stroke-opacity:1"
       id="path124"
       inkscape:connector-curvature="0" /><text
       transform="matrix(1,0,0,-1,113.5386,109.2434)"
       style="font-variant:normal;font-weight:bold;font-stretch:normal;font-size:7px;font-family:'HelveticaNeueLT Std';-inkscape-font-specification:HelveticaNeueLTStd-Bd;writing-mode:lr-tb;fill:#231f20;fill-opacity:1;fill-rule:nonzero;stroke:none"
       id="text128"><tspan
         x="0 5.0539999 9.5900002 13.867 19.054001 24.108 29.295 31.240999 36.687 40.838001 42.784 47.971001 53.025002 55.09 59.5 64.036003 69.089996 71.036003 75.579002 77.525002 81.676003 83.740997 88.928001 93.463997 98.651001 103.838"
         y="0"
         sodipodi:role="line"
         id="tspan126">RETURN OF DRIVER’S LICENCE</tspan></text>
<g
       id="g130"
       transform="translate(178.689,117.174)"><path
         d="M 0,0 V 21.3"
         style="fill:none;stroke:#231f20;stroke-width:0.5;stroke-linecap:butt;stroke-linejoin:miter;stroke-miterlimit:4;stroke-dasharray:none;stroke-opacity:1"
         id="path132"
         inkscape:connector-curvature="0" /></g><g
       id="g134"
       transform="translate(279.85,117.174)"><path
         d="M 0,0 V 12.1"
         style="fill:none;stroke:#231f20;stroke-width:0.5;stroke-linecap:butt;stroke-linejoin:miter;stroke-miterlimit:4;stroke-dasharray:none;stroke-opacity:1"
         id="path136"
         inkscape:connector-curvature="0" /></g><path
       d="m 242.58,90 h 7.4 v 6.85 h -7.4 z"
       style="fill:none;stroke:#231f20;stroke-width:0.5;stroke-linecap:butt;stroke-linejoin:miter;stroke-miterlimit:4;stroke-dasharray:none;stroke-opacity:1"
       id="path138"
       inkscape:connector-curvature="0" /><text
       transform="matrix(1,0,0,-1,17.4173,199.7901)"
       style="font-variant:normal;font-weight:normal;font-stretch:normal;font-size:6px;font-family:'HelveticaNeueLT Std';-inkscape-font-specification:HelveticaNeueLTStd-Roman;writing-mode:lr-tb;fill:#231f20;fill-opacity:1;fill-rule:nonzero;stroke:none"
       id="text148"><tspan
         x="0 3.336 7.8959999 12.228 15.564 19.007999 20.562 25.122 29.454 31.122 35.681999 39.125999 40.793999 44.796001 48.462002 52.349998"
         y="0"
         sodipodi:role="line"
         id="tspan140">LOCATION OF KEYS</tspan><tspan
         x="0 3.6659999 7.3319998 11.664 13.218 17.549999 20.886 24.552 26.219999 30.33 33.995998 37.332001 40.998001 44.886002 48.773998 52.439999 56.664001 58.332001 61.776001 66.335999 68.003998 69.557999 73.445999 76.781998 80.447998 84.335999 88.223999 91.889999 93.557999 97.445999 101.556 103.11 107.442 110.886"
         y="45.599998"
         sodipodi:role="line"
         id="tspan142">VEHICLE RELEASED TO (PLEASE PRINT)</tspan><tspan
         x="0.55199999 3.888 8.448 12.78 16.115999 19.559999 21.114 25.674 30.006001 31.674 36.234001 39.678001 41.346001 45.012001 48.678001 53.009998 54.563999 58.896 62.231998"
         y="22.799999"
         sodipodi:role="line"
         id="tspan144">LOCATION OF VEHICLE</tspan><tspan
         x="-0.708 3.402 7.0679998 10.512 14.844 18.954 23.285999 24.84 29.172001 33.726002 35.394001 39.953999 43.397999 46.841999 48.396 52.728001 56.394001 60.504002 150.04201 154.15199 157.81799 162.14999 165.81599 167.37 171.258 174.702 176.37 180.92999 184.37399 186.04201 189.37801 190.93201 195.26401 198.92999 203.26199 207.59399 211.25999 212.92799 216.81599 221.14799 225.14999 229.48199 234.04201 239.59801 242.93401 246.60001 250.82401 255.37801 259.04401"
         y="124.326"
         sodipodi:role="line"
         id="tspan146">RETURNING OFFICER RECEIPT OF LICENCE ACKNOWLEDGED</tspan></text>
<g
       id="g150"
       transform="translate(164.1846,60.75)"><path
         d="M 0,0 V 44.4"
         style="fill:none;stroke:#231f20;stroke-width:0.5;stroke-linecap:butt;stroke-linejoin:miter;stroke-miterlimit:4;stroke-dasharray:none;stroke-opacity:1"
         id="path152"
         inkscape:connector-curvature="0" /></g><g
       id="g154"
       transform="translate(247.2,270.5414)"><path
         d="M 0,0 V 28.55"
         style="fill:none;stroke:#231f20;stroke-width:0.5;stroke-linecap:butt;stroke-linejoin:miter;stroke-miterlimit:4;stroke-dasharray:none;stroke-opacity:1"
         id="path156"
         inkscape:connector-curvature="0" /></g><g
       id="g158"
       transform="matrix(1.0061934,0,0,-1,168,351)"><g
         id="g160"
         transform="translate(-152.6546,-179.35)"><path
           d="M 0,0 H 305.624"
           style="fill:none;stroke:#231f20;stroke-width:0.5;stroke-linecap:butt;stroke-linejoin:miter;stroke-miterlimit:4;stroke-dasharray:none;stroke-opacity:1"
           id="path162"
           inkscape:connector-curvature="0" /></g></g><g
       id="g164"
       transform="matrix(1.0061934,0,0,-1,168,351)"><g
         id="g166"
         transform="translate(-152.6546,-155.25)"><path
           d="M 0,0 305.724,0.05"
           style="fill:none;stroke:#231f20;stroke-width:0.5;stroke-linecap:butt;stroke-linejoin:miter;stroke-miterlimit:4;stroke-dasharray:none;stroke-opacity:1"
           id="path168"
           inkscape:connector-curvature="0" /></g></g><text
       transform="matrix(1,0,0,-1,24,546.5161)"
       style="font-variant:normal;font-weight:normal;font-stretch:normal;font-size:6px;font-family:'HelveticaNeueLT Std';-inkscape-font-specification:HelveticaNeueLTStd-Roman;writing-mode:lr-tb;fill:#231f20;fill-opacity:1;fill-rule:nonzero;stroke:none"
       id="text174"><tspan
         x="0 3.888 8.1120005 12.336 16.445999 20.112 24 27.888 29.556 31.110001 34.998001 38.442001 42.551998 46.217999 49.883999 53.327999 54.882 139.002 143.334 144.888 148.332 152.22 154.218 159.444 163.776 168.108 169.662 173.994 175.548 178.99139 182.87939 186.21539 187.76939 191.21339 195.10139 222.672 226.56 231.12 235.008 237.89999 241.78799 245.12399 246.79201 251.12399 255.68401 259.90799"
         y="0"
         sodipodi:role="line"
         id="tspan170">ADDRESS (STREET) CITY/MUNICIPALITY POSTAL CODE</tspan><tspan
         x="-7.1399999 -1.914 1.752 5.0879998 8.4239998 11.76 15.096 16.764 18.318001 21.653999 24.99 28.326 31.662001 34.998001 38.334"
         y="493.00201"
         sodipodi:role="line"
         id="tspan172">MV2906 (102018)</tspan></text>
<g
       id="g176"
       transform="translate(27.1,344.55)"><path
         d="M 0,0 H 228.1"
         style="fill:none;stroke:#231f20;stroke-width:0.5;stroke-linecap:butt;stroke-linejoin:miter;stroke-miterlimit:4;stroke-dasharray:none;stroke-opacity:1"
         id="path178"
         inkscape:connector-curvature="0" /></g><g
       id="g180"
       transform="translate(114.36,370.4)"><path
         d="M 0,0 H 56.69"
         style="fill:none;stroke:#231f20;stroke-width:0.5;stroke-linecap:butt;stroke-linejoin:miter;stroke-miterlimit:4;stroke-dasharray:none;stroke-opacity:1"
         id="path182"
         inkscape:connector-curvature="0" /></g><g
       id="g184"
       transform="translate(196.65,369.9)"><path
         d="M 0,0 H 61.35"
         style="fill:none;stroke:#231f20;stroke-width:0.5;stroke-linecap:butt;stroke-linejoin:miter;stroke-miterlimit:4;stroke-dasharray:none;stroke-opacity:1"
         id="path186"
         inkscape:connector-curvature="0" /></g><g
       id="g188"
       transform="translate(280.249,370.05)"><path
         d="M 0,0 H 32.775"
         style="fill:none;stroke:#231f20;stroke-width:0.5;stroke-linecap:butt;stroke-linejoin:miter;stroke-miterlimit:4;stroke-dasharray:none;stroke-opacity:1"
         id="path190"
         inkscape:connector-curvature="0" /></g><g
       id="g192"
       transform="translate(27,370.05)"><path
         d="M 0,0 H 33.75"
         style="fill:none;stroke:#231f20;stroke-width:0.5;stroke-linecap:butt;stroke-linejoin:miter;stroke-miterlimit:4;stroke-dasharray:none;stroke-opacity:1"
         id="path194"
         inkscape:connector-curvature="0" /></g><text
       transform="matrix(1,0,0,-1,16.85,223.6574)"
       style="font-variant:normal;font-weight:normal;font-stretch:normal;font-size:6px;font-family:'HelveticaNeueLT Std';-inkscape-font-specification:HelveticaNeueLTStd-Roman;writing-mode:lr-tb;fill:#231f20;fill-opacity:1;fill-rule:nonzero;stroke:none"
       id="text206"><tspan
         x="0 3.888 7.5539999 11.442"
         y="0"
         sodipodi:role="line"
         id="tspan196">YEAR</tspan><tspan
         x="36.978001 42.203999 46.091999 50.094002"
         y="0.252"
         sodipodi:role="line"
         id="tspan198">MAKE</tspan><tspan
         x="90.617996 95.844002 100.404 104.628 108.294"
         y="0.95999998"
         sodipodi:role="line"
         id="tspan200">MODEL</tspan><tspan
         x="139.524 143.856 148.416 151.752 156.312 160.644"
         y="0.252"
         sodipodi:role="line"
         id="tspan202">COLOUR</tspan><tspan
         x="189.09 192.978 197.088 201.64799 205.314 207.312 211.2 214.092 217.42799 220.87199 241.338 245.004 248.67 253.002 254.556 258.888 262.224 265.89001 267.55801 270.89401 272.448 276.78 278.448 280.116 284.448 289.008"
         y="0.95999998"
         sodipodi:role="line"
         id="tspan204">PROV/STATEVEHICLE LIC. NO.</tspan></text>
<g
       id="g208"
       transform="translate(202.2,206.874)"><path
         d="M 0,0 V 22.5"
         style="fill:none;stroke:#231f20;stroke-width:0.5;stroke-linecap:butt;stroke-linejoin:miter;stroke-miterlimit:4;stroke-dasharray:none;stroke-opacity:1"
         id="path210"
         inkscape:connector-curvature="0" /></g><g
       id="g212"
       transform="matrix(1.0004058,0,0,-1,168,351)"><g
         id="g214"
         transform="translate(-153.7443,268.75)"><path
           d="M 0,0 H 307.383"
           style="fill:none;stroke:#231f20;stroke-width:0.5;stroke-linecap:butt;stroke-linejoin:miter;stroke-miterlimit:4;stroke-dasharray:none;stroke-opacity:1"
           id="path216"
           inkscape:connector-curvature="0" /></g></g><g
       id="g218"
       transform="matrix(1.0056616,0,0,-1,168,351)"><g
         id="g220"
         transform="translate(-152.698,212.326)"><path
           d="M 0,0 H 304.75"
           style="fill:none;stroke:#231f20;stroke-width:0.5;stroke-linecap:butt;stroke-linejoin:miter;stroke-miterlimit:4;stroke-dasharray:none;stroke-opacity:1"
           id="path222"
           inkscape:connector-curvature="0" /></g></g><g
       id="g224"
       transform="matrix(1.0056616,0,0,-1,168,351)"><g
         id="g226"
         transform="translate(-152.698,144.376)"><path
           d="M 0,0 H 304.85"
           style="fill:none;stroke:#231f20;stroke-width:0.5;stroke-linecap:butt;stroke-linejoin:miter;stroke-miterlimit:4;stroke-dasharray:none;stroke-opacity:1"
           id="path228"
           inkscape:connector-curvature="0" /></g></g><g
       id="g230"
       transform="matrix(1.0056616,0,0,-1,168,351)"><g
         id="g232"
         transform="translate(-152.698,167.3183)"><path
           d="M 0,0 H 304.85"
           style="fill:none;stroke:#231f20;stroke-width:0.5;stroke-linecap:butt;stroke-linejoin:miter;stroke-miterlimit:4;stroke-dasharray:none;stroke-opacity:1"
           id="path234"
           inkscape:connector-curvature="0" /></g></g><g
       id="g236"
       transform="matrix(1.0056616,0,0,-1,168,351)"><g
         id="g238"
         transform="translate(-152.5249,190.3375)"><path
           d="M 0,0 H 304.85"
           style="fill:none;stroke:#231f20;stroke-width:0.5;stroke-linecap:butt;stroke-linejoin:miter;stroke-miterlimit:4;stroke-dasharray:none;stroke-opacity:1"
           id="path240"
           inkscape:connector-curvature="0" /></g></g><g
       id="g242"
       transform="translate(202.75,242.2914)"><path
         d="M 0,0 V 28.55"
         style="fill:none;stroke:#231f20;stroke-width:0.5;stroke-linecap:butt;stroke-linejoin:miter;stroke-miterlimit:4;stroke-dasharray:none;stroke-opacity:1"
         id="path244"
         inkscape:connector-curvature="0" /></g><g
       id="g246"
       transform="matrix(0.8843081,0,0,-1,168,351)"><g
         id="g248"
         transform="translate(95.1815,-202.2863)"><path
           d="M 0,0 V -2.9"
           style="fill:none;stroke:#231f20;stroke-width:0.25;stroke-linecap:butt;stroke-linejoin:miter;stroke-miterlimit:4;stroke-dasharray:none;stroke-opacity:1"
           id="path250"
           inkscape:connector-curvature="0" /></g></g><g
       id="g252"
       transform="matrix(0.8843081,0,0,-1,168,351)"><g
         id="g254"
         transform="translate(108.2651,-202.2863)"><path
           d="M 0,0 V -2.9"
           style="fill:none;stroke:#231f20;stroke-width:0.25;stroke-linecap:butt;stroke-linejoin:miter;stroke-miterlimit:4;stroke-dasharray:none;stroke-opacity:1"
           id="path256"
           inkscape:connector-curvature="0" /></g></g><g
       id="g258"
       transform="matrix(0.8843081,0,0,-1,168,351)"><g
         id="g260"
         transform="translate(82.098,-202.2863)"><path
           d="M 0,0 V -2.9"
           style="fill:none;stroke:#231f20;stroke-width:0.25;stroke-linecap:butt;stroke-linejoin:miter;stroke-miterlimit:4;stroke-dasharray:none;stroke-opacity:1"
           id="path262"
           inkscape:connector-curvature="0" /></g></g><g
       id="g264"
       transform="matrix(0.8843081,0,0,-1,168,351)"><g
         id="g266"
         transform="translate(147.5158,-202.2863)"><path
           d="M 0,0 V -5.6"
           style="fill:none;stroke:#231f20;stroke-width:0.25;stroke-linecap:butt;stroke-linejoin:miter;stroke-miterlimit:4;stroke-dasharray:none;stroke-opacity:1"
           id="path268"
           inkscape:connector-curvature="0" /></g></g><g
       id="g270"
       transform="matrix(0.8843081,0,0,-1,168,351)"><g
         id="g272"
         transform="translate(160.5993,-202.2863)"><path
           d="M 0,0 V -2.9"
           style="fill:none;stroke:#231f20;stroke-width:0.25;stroke-linecap:butt;stroke-linejoin:miter;stroke-miterlimit:4;stroke-dasharray:none;stroke-opacity:1"
           id="path274"
           inkscape:connector-curvature="0" /></g></g><g
       id="g276"
       transform="matrix(0.8843081,0,0,-1,168,351)"><g
         id="g278"
         transform="translate(121.3487,-202.2863)"><path
           d="M 0,0 V -5.55"
           style="fill:none;stroke:#231f20;stroke-width:0.25;stroke-linecap:butt;stroke-linejoin:miter;stroke-miterlimit:4;stroke-dasharray:none;stroke-opacity:1"
           id="path280"
           inkscape:connector-curvature="0" /></g></g><g
       id="g282"
       transform="matrix(0.8843081,0,0,-1,168,351)"><g
         id="g284"
         transform="translate(134.4322,-202.2863)"><path
           d="M 0,0 V -2.9"
           style="fill:none;stroke:#231f20;stroke-width:0.25;stroke-linecap:butt;stroke-linejoin:miter;stroke-miterlimit:4;stroke-dasharray:none;stroke-opacity:1"
           id="path286"
           inkscape:connector-curvature="0" /></g></g><g
       id="g288"
       transform="matrix(0.9907262,0,0,-1,168,351)"><g
         id="g290"
         transform="translate(-149.514,-225.35)"><path
           d="M 0,0 H 304.538"
           style="fill:none;stroke:#231f20;stroke-width:0.5;stroke-linecap:butt;stroke-linejoin:miter;stroke-miterlimit:4;stroke-dasharray:none;stroke-opacity:1"
           id="path292"
           inkscape:connector-curvature="0" /></g></g><g
       id="g294"
       transform="matrix(0.9907262,0,0,-1,168,351)"><g
         id="g296"
         transform="translate(-150.114,-202.1)"><path
           d="M 0,0 H 305.178"
           style="fill:none;stroke:#231f20;stroke-width:0.5;stroke-linecap:butt;stroke-linejoin:miter;stroke-miterlimit:4;stroke-dasharray:none;stroke-opacity:1"
           id="path298"
           inkscape:connector-curvature="0" /></g></g><path
       d="m 14,530.1 h 7.031 v 68.203 H 14 Z"
       style="fill:#231f20;fill-opacity:1;fill-rule:nonzero;stroke:none"
       id="path300"
       inkscape:connector-curvature="0" /><text
       transform="matrix(1,0,0,-1,16.0756,587.5596)"
       style="font-variant:normal;font-weight:bold;font-stretch:condensed;font-size:6px;font-family:'HelveticaNeueLT Std Cn';-inkscape-font-specification:HelveticaNeueLTStd-BdCn;writing-mode:lr-tb;fill:#ffffff;fill-opacity:1;fill-rule:nonzero;stroke:none"
       id="text318"><tspan
         x="0"
         y="0"
         id="tspan302">T</tspan><tspan
         x="-0.228"
         y="6"
         id="tspan304">O</tspan><tspan
         x="-0.28200001"
         y="21"
         id="tspan306">D</tspan><tspan
         x="-0.228"
         y="27"
         id="tspan308">R</tspan><tspan
         x="0.66600001"
         y="33"
         id="tspan310">I</tspan><tspan
         x="-0.12"
         y="39"
         id="tspan312">V</tspan><tspan
         x="-0.0060000001"
         y="45"
         id="tspan314">E</tspan><tspan
         x="-0.228"
         y="51"
         id="tspan316">R</tspan></text>
<text
       transform="matrix(1,0,0,-1,24.0316,592.3296)"
       style="font-variant:normal;font-weight:normal;font-stretch:normal;font-size:6px;font-family:'HelveticaNeueLT Std';-inkscape-font-specification:HelveticaNeueLTStd-Roman;writing-mode:lr-tb;fill:#231f20;fill-opacity:1;fill-rule:nonzero;stroke:none"
       id="text324"><tspan
         x="0 3.888 8.2200003 12.33 16.662001 20.549999 25.775999 29.441999 31.110001 32.664001 36.222 38.220001 39.551998 42.888 44.778 46.332001 153 157.554 159.108 162.774 166.44"
         y="0"
         sodipodi:role="line"
         id="tspan320">SURNAME (print) GIVEN</tspan><tspan
         x="-0.708 3.516 7.6259999 9.1800003 12.846 16.511999 20.622 22.290001 26.177999 27.846001 31.181999 32.736 37.068001 40.734001 45.066002 49.397999 53.063999 54.731998 59.063999 63.624001 65.292 143.29201 147.17999 151.28999 155.85001 159.51601 161.07001 165.40199 169.73399 173.39999 218.29201 222.51601 227.076 231.186 232.854 234.408 237.408 240.408 243.408 246.408 251.526 256.64401 260.202 263.76001"
         y="21.768"
         sodipodi:role="line"
         id="tspan322">DRIVER’S LICENCE NO. PROVINCE DOB (yyyymmdd)</tspan></text>
<g
       id="g326"
       transform="translate(229.1588,576.3981)"><path
         d="M 0,0 V -23.365"
         style="fill:none;stroke:#231f20;stroke-width:0.5;stroke-linecap:butt;stroke-linejoin:miter;stroke-miterlimit:4;stroke-dasharray:none;stroke-opacity:1"
         id="path328"
         inkscape:connector-curvature="0" /></g><g
       id="g330"
       transform="translate(162.0781,576.3115)"><path
         d="M 0,0 V -23.279"
         style="fill:none;stroke:#231f20;stroke-width:0.5;stroke-linecap:butt;stroke-linejoin:miter;stroke-miterlimit:4;stroke-dasharray:none;stroke-opacity:1"
         id="path332"
         inkscape:connector-curvature="0" /></g><g
       id="g334"
       transform="translate(143.8263,486.2653)"><path
         d="M 0,0 H 9.75"
         style="fill:none;stroke:#231f20;stroke-width:0.32499999;stroke-linecap:butt;stroke-linejoin:miter;stroke-miterlimit:10;stroke-dasharray:none;stroke-opacity:1"
         id="path336"
         inkscape:connector-curvature="0" /></g><text
       transform="matrix(1,0,0,-1,82.5846,486.9152)"
       style="font-variant:normal;font-weight:normal;font-stretch:normal;font-size:6px;font-family:'HelveticaNeueLT Std';-inkscape-font-specification:HelveticaNeueLTStd-Roman;writing-mode:lr-tb;fill:#231f20;fill-opacity:1;fill-rule:nonzero;stroke:none"
       id="text340"><tspan
         x="0 3.336 6.6719999 8.3400002 11.676 13.23 16.566 18.120001"
         y="0"
         sodipodi:role="line"
         id="tspan338">90.3(2) </tspan></text>
<text
       transform="matrix(1,0,0,-1,102.3726,486.9152)"
       style="font-variant:normal;font-weight:bold;font-stretch:normal;font-size:6px;font-family:'HelveticaNeueLT Std';-inkscape-font-specification:HelveticaNeueLTStd-Bd;writing-mode:lr-tb;fill:#231f20;fill-opacity:1;fill-rule:nonzero;stroke:none"
       id="text344"><tspan
         x="0 4.1100001 7.6680002 12.114 16.782 21.228001 25.896 29.454"
         y="0"
         sodipodi:role="line"
         id="tspan342">ALCOHOL </tspan></text>
<text
       transform="matrix(1,0,0,-1,143.8263,486.9152)"
       style="font-variant:normal;font-weight:bold;font-stretch:normal;font-size:6.5px;font-family:'HelveticaNeueLT Std';-inkscape-font-specification:HelveticaNeueLTStd-Bd;writing-mode:lr-tb;fill:#231f20;fill-opacity:1;fill-rule:nonzero;stroke:none"
       id="text348"><tspan
         x="0 5.0570002"
         y="0"
         sodipodi:role="line"
         id="tspan346">OR</tspan></text>
<text
       transform="matrix(1,0,0,-1,183.12,487.2722)"
       style="font-variant:normal;font-weight:normal;font-stretch:normal;font-size:6px;font-family:'HelveticaNeueLT Std';-inkscape-font-specification:HelveticaNeueLTStd-Roman;writing-mode:lr-tb;fill:#231f20;fill-opacity:1;fill-rule:nonzero;stroke:none"
       id="text352"><tspan
         x="0 3.336 6.6719999 8.3400002 11.676 13.23 16.566 18.233999 21.57 23.124001"
         y="0"
         sodipodi:role="line"
         id="tspan350">90.3(2.1) </tspan></text>
<text
       transform="matrix(1,0,0,-1,207.912,487.2722)"
       style="font-variant:normal;font-weight:bold;font-stretch:normal;font-size:6px;font-family:'HelveticaNeueLT Std';-inkscape-font-specification:HelveticaNeueLTStd-Bd;writing-mode:lr-tb;fill:#231f20;fill-opacity:1;fill-rule:nonzero;stroke:none"
       id="text356"><tspan
         x="0 4.4460001 8.7779999 13.224 17.778"
         y="0"
         sodipodi:role="line"
         id="tspan354">DRUGS</tspan></text>
<path
       d="m 66.946,484.759 h 10 v 10 h -10 z"
       style="fill:none;stroke:#231f20;stroke-width:0.5;stroke-linecap:butt;stroke-linejoin:miter;stroke-miterlimit:4;stroke-dasharray:none;stroke-opacity:1"
       id="path358"
       inkscape:connector-curvature="0" /><path
       d="m 166.81,484.759 h 10 v 10 h -10 z"
       style="fill:none;stroke:#231f20;stroke-width:0.5;stroke-linecap:butt;stroke-linejoin:miter;stroke-miterlimit:4;stroke-dasharray:none;stroke-opacity:1"
       id="path360"
       inkscape:connector-curvature="0" /><text
       transform="matrix(1,0,0,-1,246.0781,601.316)"
       style="font-variant:normal;font-weight:normal;font-stretch:normal;font-size:6px;font-family:'HelveticaNeueLT Std';-inkscape-font-specification:HelveticaNeueLTStd-Roman;writing-mode:lr-tb;fill:#231f20;fill-opacity:1;fill-rule:nonzero;stroke:none"
       id="text368"><tspan
         x="0 5.2259998 6.7800002 11.112 15.222 19.782 23.226 24.780001 28.115999 33.341999 35.009998 39.341999 43.902"
         y="0"
         sodipodi:role="line"
         id="tspan362">MICROFILM NO.</tspan><tspan
         x="-52.037998 -47.706001 -43.818001 -39.486 -37.818001 -33.486 -29.153999 -23.927999 -19.818001 -16.152"
         y="77.910004"
         sodipodi:role="line"
         id="tspan364">NSC NUMBER</tspan><tspan
         x="-230.076 -225.966 -222.3 -218.412 -214.524 -209.964"
         y="101.814"
         sodipodi:role="line"
         id="tspan366">REASON</tspan></text>
<text
       transform="matrix(1,0,0,-1,16,510.7774)"
       style="font-variant:normal;font-weight:500;font-stretch:normal;font-size:10px;font-family:'HelveticaNeueLT Std Med';-inkscape-font-specification:HelveticaNeueLTStd-Md;writing-mode:lr-tb;fill:#231f20;fill-opacity:1;fill-rule:nonzero;stroke:none"
       id="text372"><tspan
         x="0 2.78 36.139999"
         y="0"
         sodipodi:role="line"
         id="tspan370">( )</tspan></text>
<text
       transform="matrix(1,0,0,-1,183.7059,558.4321)"
       style="font-variant:normal;font-weight:bold;font-stretch:condensed;font-size:12px;font-family:'HelveticaNeueLT Std Cn';-inkscape-font-specification:HelveticaNeueLTStd-BdCn;writing-mode:lr-tb;fill:#231f20;fill-opacity:1;fill-rule:nonzero;stroke:none"
       id="text376"><tspan
         x="0 6.6719999 13.116"
         y="0"
         sodipodi:role="line"
         id="tspan374">BC </tspan></text>
<text
       transform="matrix(1,0,0,-1,29.25,463.7269)"
       style="font-variant:normal;font-weight:500;font-stretch:normal;font-size:9px;font-family:'HelveticaNeueLT Std Med';-inkscape-font-specification:HelveticaNeueLTStd-Md;writing-mode:lr-tb;fill:#231f20;fill-opacity:1;fill-rule:nonzero;stroke:none"
       id="text392"><tspan
         x="0 5.3369999 10.683 13.032 17.882999 20.565001 25.416 30.761999 35.612999 41.292 46.476002 51.821999 56.673 59.021999 64.539001 69.885002 72.567001 75.582001 78.93 84.446999 92.457001 95.139 100.818 104.166 106.515 111.366 113.715 119.061 124.578 127.26 134.442 136.791 139.14 141.489 144.17101 149.85001 155.034 157.716 161.064 166.248 171.43201 176.94901 180.297 185.976 191.16 196.839 199.521 205.03799 210.384 213.06599 217.91701 223.43401 228.78 232.12801 234.81 241.326 244.674 247.02299 250.2 252.549 257.39999 262.56601"
         y="0"
         sodipodi:role="line"
         id="tspan378">This suspension from driving will be recorded on your British </tspan><tspan
         x="0 6.678 12.195 14.544 19.889999 27.9 33.578999 35.928001 41.112 43.793999 49.473 52.820999 55.169998 60.021 62.369999 67.716003 73.233002 75.915001 79.263 84.446999 89.630997 95.148003 98.496002 104.175 106.857 112.041 117.387 123.066 125.748 133.758 138.942 143.793 146.47501 152.15401 157.338 160.02 165.20399 170.72099 176.067 180.918 183.267 188.946 194.13 197.478 202.662 208.341 211.02299 216.702 221.55299 224.235 227.412 232.758 237.76199"
         y="10.8"
         sodipodi:role="line"
         id="tspan380">Columbia driving record and may be considered by the </tspan><tspan
         x="0 6.0120001 11.358 17.037001 22.221001 25.569 27.917999 33.264 36.441002 41.625 46.971001 52.650002 57.834 63.18 66.357002 69.039001 74.556 77.570999 80.252998 88.433998 93.950996 97.127998 102.645 105.993 108.675 114.354 119.538 124.884 127.233 132.41701 134.76601 139.95 144.80099 147.483 154.66499 160.011 165.19501 170.541 173.22301 176.571 181.755 186.606 188.955 194.13901 201.321 203.67 209.01601 214.533 217.215 222.06599 227.58299 232.929 236.27699 238.959 244.638 247.98599 250.33501 255.186 257.535 262.88101 268.21799"
         y="21.6"
         sodipodi:role="line"
         id="tspan382">Superintendent of Motor Vehicles when reviewing your driving </tspan><tspan
         x="0 3.348 8.5319996 13.716 19.233 22.580999 28.26 30.761999"
         y="32.400002"
         sodipodi:role="line"
         id="tspan384">record. </tspan><tspan
         x="0 5.9219999 12.852 19.440001 25.865999 28.458 33.714001 36.306 42.894001 48.653999 55.242001 61.830002 67.589996 70.181999 75.609001 82.539001 85.130997 91.719002 98.144997 100.737 106.326 112.086 114.678 117.27 123.192 125.784 132.37199 138.132 144.558 150.31799 156.744 162.666 165.258 171.17999 177.76801 183.69 189.783 195.543 202.131 208.71899 214.479 221.067 223.659 230.24699 236.83501 243.423 249.183 255.519"
         y="49.202999"
         sodipodi:role="line"
         id="tspan386">YOUR LICENCE TO DRIVE IS HEREBY SUSPENDED UNDER </tspan><tspan
         x="0 5.9219999 11.682 18.27 23.697001 26.289 33.219002 39.806999 42.398998 47.493 52.587002 55.179001 60.272999 62.865002 69.794998 75.222 77.814003 83.240997 89.829002 95.588997 98.181 106.272 113.202 118.629 125.559 131.985 134.577 140.166 145.92599 152.51401 155.106 161.694 166.95 172.71001 175.302 181.395 187.983 193.41 196.002 201.429 208.35899 214.785 217.377 223.47 226.062 232.155 237.91499 244.341 246.933 253.86301 260.45099 263.043 269.97299 275.31"
         y="60.002998"
         sodipodi:role="line"
         id="tspan388">SECTION 90.3 OF THE MOTOR VEHICLE ACT FOR A PERIOD OF </tspan><tspan
         x="0 5.0939999 10.188 12.78 19.368 26.298 32.886002 39.312 45.234001 47.826 54.414001 61.344002 69.434998 77.526001 83.286003 89.874001 96.461998 99.054001 105.642 112.563 115.155 121.248 126.675"
         y="70.803001"
         sodipodi:role="line"
         id="tspan390">12 HOURS COMMENCING AT:</tspan></text>
<text
       transform="matrix(1,0,0,-1,64.25,373.7269)"
       style="font-variant:normal;font-weight:500;font-stretch:normal;font-size:8px;font-family:'HelveticaNeueLT Std Med';-inkscape-font-specification:HelveticaNeueLTStd-Md;writing-mode:lr-tb;fill:#231f20;fill-opacity:1;fill-rule:nonzero;stroke:none"
       id="text398"><tspan
         x="0 4.592 9.3360004 13.928 16.743999 20.896 23.120001 27.864 32.456001 34.68 37.344002 41.936001 46.383999 108.872 113.76 118.208 122.36 124.584 129.328 131.84801 197 201.448 205.896 210.34399"
         y="0"
         sodipodi:role="line"
         id="tspan394">hours on the day of Year</tspan><tspan
         x="-39.495998 -34.312 -32.088001 -26.016001 -20.24 -15.64 -10.896 -5.1199999 0.51200002 5.552 7.776 13.856 18.6 20.823999 26.16 31.200001 36.832001 42.015999 48.096001 53.872002 56.096001 61.431999 67.208 72.688004 78.463997 84.543999 92.096001 96.688004 101.728 107.504 113.576 115.8 121.576 127.648 129.87199 135.056 140.832 146.01601 151.35201 156.392 162.168 167.35201 169.576 175.65601"
         y="38.68"
         sodipodi:role="line"
         id="tspan396">SIGNATURE OF PERSON ACKNOWLEDGING SUSPENSION</tspan></text>
<text
       transform="scale(1.1856101,-0.84344763)"
       style="font-variant:normal;font-weight:bold;font-stretch:condensed;font-size:14.22732067px;font-family:'HelveticaNeueLT Std Cn';-inkscape-font-specification:HelveticaNeueLTStd-BdCn;writing-mode:lr-tb;fill:#231f20;fill-opacity:1;fill-rule:nonzero;stroke:none;stroke-width:1.18561006"
       id="text404"
       x="14.805144"
       y="-755.79474"><tspan
         x="14.805144 22.971626 30.540562 37.369675 41.040325 48.680397 55.523739 58.938293 66.848686 73.435936 76.850494 83.679604 90.50872 95.772827 103.68321 111.59361 119.24791 127.15829"
         y="-755.79474"
         sodipodi:role="line"
         id="tspan400"
         style="font-style:normal;font-variant:normal;font-weight:bold;font-stretch:normal;font-family:'DejaVu Sans';-inkscape-font-specification:'DejaVu Sans Bold';stroke-width:1.18561006;font-size:11.00000012px">NOTICE OF 12-HOUR </tspan><tspan
         x="14.805144 21.392393 25.063044 32.703114 39.546455 47.712936 55.353008 62.19635 65.610909 72.994888 80.649185 88.033165 95.417137 102.26048 110.42696 117.81094 121.48159 129.39198 137.55847"
         y="-738.72198"
         sodipodi:role="line"
         id="tspan402"
         style="font-style:normal;font-variant:normal;font-weight:bold;font-stretch:normal;font-family:'DejaVu Sans';-inkscape-font-specification:'DejaVu Sans Bold';stroke-width:1.18561006;font-size:11.00000012px">LICENCE SUSPENSION </tspan></text>
<text
       transform="matrix(1,0,0,-1,18,605.0732)"
       style="font-variant:normal;font-weight:bold;font-stretch:normal;font-size:17px;font-family:'ITC Officina Serif Book';-inkscape-font-specification:OfficinaSerif-Bold;writing-mode:lr-tb;fill:#231f20;fill-opacity:1;fill-rule:nonzero;stroke:none"
       id="text410"><tspan
         x="0"
         y="0"
         id="tspan406">J</tspan><tspan
         x="7.8709998"
         y="-1.003"
         id="tspan408">–</tspan></text>
<text
       transform="matrix(1,0,0,-1,182.3414,92.0074)"
       style="font-variant:normal;font-weight:normal;font-stretch:normal;font-size:6px;font-family:'HelveticaNeueLT Std';-inkscape-font-specification:HelveticaNeueLTStd-Roman;writing-mode:lr-tb;fill:#231f20;fill-opacity:1;fill-rule:nonzero;stroke:none"
       id="text414"><tspan
         x="0 3.888 7.5539999 11.664 15.552 20.112 24.444 28.332001 31.667999 34.337399 38.225399 72 77.225998 81.113998 82.667999"
         y="0"
         sodipodi:role="line"
         id="tspan412">PERSONALLY MAIL</tspan></text>
<path
       d="M 14.124,479.352 H 321.748 V 598.25 H 14.124 Z"
       style="fill:none;stroke:#231f20;stroke-width:0.5;stroke-linecap:butt;stroke-linejoin:miter;stroke-miterlimit:4;stroke-dasharray:none;stroke-opacity:1"
       id="path416"
       inkscape:connector-curvature="0" /><g
       id="g418"
       transform="matrix(1.0004058,0,0,-1,168,351)"><path
         d="m -153.812,290.562 h 307.5 v -45.063 h -307.5 z"
         style="fill:none;stroke:#231f20;stroke-width:0.5;stroke-linecap:butt;stroke-linejoin:miter;stroke-miterlimit:4;stroke-dasharray:none;stroke-opacity:1"
         id="path420"
         inkscape:connector-curvature="0" /></g><g
       id="g422"><g
         id="g424"
         clip-path="url(#clipPath428)"><text
           transform="matrix(1,0,0,-1,340.6965,568.9802)"
           style="font-variant:normal;font-weight:bold;font-stretch:normal;font-size:10px;font-family:'HelveticaNeueLT Std';-inkscape-font-specification:HelveticaNeueLTStd-Bd;writing-mode:lr-tb;fill:#231f20;fill-opacity:1;fill-rule:nonzero;stroke:none"
           id="text438"><tspan
             x="0 7.4099998 13.15 18.52 21.1 27.209999 33.139999 38.880001 42.400002 44.98 51.09 57.02 62.389999 65.169998"
             y="0"
             sodipodi:role="line"
             id="tspan430">Designations: </tspan><tspan
             x="0 5.5599999 13 19.49 25.969999 33.380001 40.790001 43.57 49.68 57.459999 60.240002 63.189999 70.599998 77.639999 85.050003"
             y="14"
             sodipodi:role="line"
             id="tspan432">1 SEND TO ICBC </tspan><tspan
             x="0 5.5599999 13 20.41 27.629999 30.58 36.880001 43.360001 50.580002 53.360001 60.77 68.550003 75.220001 81.889999"
             y="26"
             sodipodi:role="line"
             id="tspan434">2 DRIVER COPY </tspan><tspan
             x="0 5.5599999 13 19.67 27.450001 33.380001 36.330002 43.740002 50.220001 53 60.41 68.190002 74.860001"
             y="38"
             sodipodi:role="line"
             id="tspan436">3 POLICE COPY</tspan></text>
</g></g></g></svg>